<?xml version="1.0" encoding="UTF-8" standalone="no"?>
<svg
   xmlns:dc="http://purl.org/dc/elements/1.1/"
   xmlns:cc="http://creativecommons.org/ns#"
   xmlns:rdf="http://www.w3.org/1999/02/22-rdf-syntax-ns#"
   xmlns:svg="http://www.w3.org/2000/svg"
   xmlns="http://www.w3.org/2000/svg"
   xmlns:sodipodi="http://sodipodi.sourceforge.net/DTD/sodipodi-0.dtd"
   xmlns:inkscape="http://www.inkscape.org/namespaces/inkscape"
   version="1.1"
   x="0px"
   y="0px"
   width="817px"
   height="375px"
   viewBox="0 0 817 375"
   id="svg2"
   inkscape:version="0.48.4 r9939"
   sodipodi:docname="sequence-diagram.svg">
  <metadata
     id="metadata494">
    <rdf:RDF>
      <cc:Work
         rdf:about="">
        <dc:format>image/svg+xml</dc:format>
        <dc:type
           rdf:resource="http://purl.org/dc/dcmitype/StillImage" />
        <dc:title />
      </cc:Work>
    </rdf:RDF>
  </metadata>
  <defs
     id="defs492" />
  <sodipodi:namedview
     pagecolor="#ffffff"
     bordercolor="#666666"
     borderopacity="1"
     objecttolerance="10"
     gridtolerance="10"
     guidetolerance="10"
     inkscape:pageopacity="0"
     inkscape:pageshadow="2"
     inkscape:window-width="1920"
     inkscape:window-height="1182"
     id="namedview490"
     showgrid="false"
     inkscape:zoom="1.32"
     inkscape:cx="367.98179"
     inkscape:cy="118.35333"
     inkscape:window-x="0"
     inkscape:window-y="-3"
     inkscape:window-maximized="1"
     inkscape:current-layer="g8" />
  <desc
     id="desc6">Creator: FreeHEP Graphics2D Driver Producer: org.freehep.graphicsio.svg.SVGGraphics2D Revision: 12753  Source:  Date: Tuesday, January 28, 2014 12:57:06 AM CET</desc>
  <g
     stroke-linejoin="miter"
     stroke-dashoffset="0"
     stroke-dasharray="none"
     stroke-width="1"
     stroke-miterlimit="10"
     stroke-linecap="square"
     id="g8">
    <g
       fill-opacity="1"
       fill-rule="nonzero"
       stroke="none"
       fill="#ffffff"
       id="g10">
      <path
         d="M 58 36 L 65 36 L 65 370 L 58 370 L 58 36 z"
         id="path12" />
    </g>
    <!-- drawing style -->
    <g
       stroke-linejoin="round"
       stroke-linecap="butt"
       stroke-miterlimit="1"
       fill="none"
       stroke-opacity="1"
       stroke="#000000"
       id="g14">
      <path
         d="M 58.5 36.5 L 65.5 36.5 L 65.5 370.5 L 58.5 370.5 L 58.5 36.5 z"
         id="path16" />
    </g>
    <!-- drawing style -->
    <g
       fill-opacity="1"
       fill-rule="nonzero"
       stroke="none"
       fill="#ffffff"
       id="g18">
      <path
         d="M 58 36 L 65 36 L 65 370 L 58 370 L 58 36 z"
         id="path20" />
    </g>
    <!-- drawing style -->
    <g
       stroke-linejoin="round"
       stroke-linecap="butt"
       stroke-miterlimit="1"
       fill="none"
       stroke-opacity="1"
       stroke="#000000"
       id="g22">
      <path
         d="M 58.5 36.5 L 65.5 36.5 L 65.5 370.5 L 58.5 370.5 L 58.5 36.5 z"
         id="path24" />
    </g>
    <!-- drawing style -->
    <g
       stroke-linejoin="round"
       stroke-dasharray="1,2"
       stroke-linecap="butt"
       stroke-miterlimit="1"
       fill="none"
       stroke-opacity="1"
       stroke="#000000"
       id="g26">
      <path
         d="M 175.5 36.5 L 175.5 370.5"
         id="path28" />
    </g>
    <!-- drawing style -->
    <g
       stroke-linejoin="round"
       stroke-dasharray="1,2"
       stroke-linecap="butt"
       stroke-miterlimit="1"
       fill="none"
       stroke-opacity="1"
       stroke="#000000"
       id="g30">
      <path
         d="M 175.5 36.5 L 175.5 370.5"
         id="path32" />
    </g>
    <!-- drawing style -->
    <g
       fill-opacity="1"
       fill-rule="nonzero"
       stroke="none"
       fill="#eeeeee"
       id="g34">
      <path
         d="M 172 64 L 179 64 L 179 125 L 172 125 L 172 64 z"
         id="path36" />
    </g>
    <!-- drawing style -->
    <g
       stroke-linejoin="round"
       stroke-linecap="butt"
       stroke-miterlimit="1"
       fill="none"
       stroke-opacity="1"
       stroke="#000000"
       id="g38">
      <path
         d="M 172.5 64.5 L 179.5 64.5 L 179.5 125.5 L 172.5 125.5 L 172.5 64.5 z"
         id="path40" />
    </g>
    <!-- drawing style -->
    <g
       stroke-linejoin="round"
       stroke-dasharray="1,2"
       stroke-linecap="butt"
       stroke-miterlimit="1"
       fill="none"
       stroke-opacity="1"
       stroke="#000000"
       id="g42">
      <path
         d="M 296.5 84.5 L 296.5 359.5"
         id="path44" />
    </g>
    <!-- drawing style -->
    <g
       stroke-linejoin="round"
       stroke-dasharray="1,2"
       stroke-linecap="butt"
       stroke-miterlimit="1"
       fill="none"
       stroke-opacity="1"
       stroke="#000000"
       id="g46">
      <path
         d="M 296.5 84.5 L 296.5 359.5"
         id="path48" />
    </g>
    <!-- drawing style -->
    <g
       fill-opacity="1"
       fill-rule="nonzero"
       stroke="none"
       fill="#eeeeee"
       id="g50">
      <path
         d="M 293 110 L 300 110 L 300 353 L 293 353 L 293 110 z"
         id="path52" />
    </g>
    <!-- drawing style -->
    <g
       stroke-linejoin="round"
       stroke-linecap="butt"
       stroke-miterlimit="1"
       fill="none"
       stroke-opacity="1"
       stroke="#000000"
       id="g54">
      <path
         d="M 293.5 110.5 L 300.5 110.5 L 300.5 353.5 L 293.5 353.5 L 293.5 110.5 z"
         id="path56" />
    </g>
    <!-- drawing style -->
    <g
       stroke-linejoin="round"
       stroke-dasharray="1,2"
       stroke-linecap="butt"
       stroke-miterlimit="1"
       fill="none"
       stroke-opacity="1"
       stroke="#000000"
       id="g58">
      <path
         d="M 417.5 36.5 L 417.5 370.5"
         id="path60" />
    </g>
    <!-- drawing style -->
    <g
       stroke-linejoin="round"
       stroke-dasharray="1,2"
       stroke-linecap="butt"
       stroke-miterlimit="1"
       fill="none"
       stroke-opacity="1"
       stroke="#000000"
       id="g62">
      <path
         d="M 417.5 36.5 L 417.5 370.5"
         id="path64" />
    </g>
    <!-- drawing style -->
    <g
       fill-opacity="1"
       fill-rule="nonzero"
       stroke="none"
       fill="#eeeeee"
       id="g66">
      <path
         d="M 414 223 L 421 223 L 421 270 L 414 270 L 414 223 z"
         id="path68" />
    </g>
    <!-- drawing style -->
    <g
       stroke-linejoin="round"
       stroke-linecap="butt"
       stroke-miterlimit="1"
       fill="none"
       stroke-opacity="1"
       stroke="#000000"
       id="g70">
      <path
         d="M 414.5 223.5 L 421.5 223.5 L 421.5 270.5 L 414.5 270.5 L 414.5 223.5 z"
         id="path72" />
    </g>
    <!-- drawing style -->
    <g
       stroke-linejoin="round"
       stroke-dasharray="1,2"
       stroke-linecap="butt"
       stroke-miterlimit="1"
       fill="none"
       stroke-opacity="1"
       stroke="#000000"
       id="g74">
      <path
         d="M 531.5 36.5 L 531.5 370.5"
         id="path76" />
    </g>
    <!-- drawing style -->
    <g
       stroke-linejoin="round"
       stroke-dasharray="1,2"
       stroke-linecap="butt"
       stroke-miterlimit="1"
       fill="none"
       stroke-opacity="1"
       stroke="#000000"
       id="g78">
      <path
         d="M 531.5 36.5 L 531.5 370.5"
         id="path80" />
    </g>
    <!-- drawing style -->
    <g
       fill-opacity="1"
       fill-rule="nonzero"
       stroke="none"
       fill="#eeeeee"
       id="g82">
      <path
         d="M 528 240 L 535 240 L 535 255 L 528 255 L 528 240 z"
         id="path84" />
    </g>
    <!-- drawing style -->
    <g
       stroke-linejoin="round"
       stroke-linecap="butt"
       stroke-miterlimit="1"
       fill="none"
       stroke-opacity="1"
       stroke="#000000"
       id="g86">
      <path
         d="M 528.5 240.5 L 535.5 240.5 L 535.5 255.5 L 528.5 255.5 L 528.5 240.5 z"
         id="path88" />
    </g>
    <!-- drawing style -->
    <g
       fill-opacity="1"
       fill-rule="nonzero"
       stroke="none"
       fill="#ffffff"
       id="g90">
      <path
         d="M 642 36 L 649 36 L 649 370 L 642 370 L 642 36 z"
         id="path92" />
    </g>
    <!-- drawing style -->
    <g
       stroke-linejoin="round"
       stroke-linecap="butt"
       stroke-miterlimit="1"
       fill="none"
       stroke-opacity="1"
       stroke="#000000"
       id="g94">
      <path
         d="M 642.5 36.5 L 649.5 36.5 L 649.5 370.5 L 642.5 370.5 L 642.5 36.5 z"
         id="path96" />
    </g>
    <!-- drawing style -->
    <g
       fill-opacity="1"
       fill-rule="nonzero"
       stroke="none"
       fill="#ffffff"
       id="g98">
      <path
         d="M 642 36 L 649 36 L 649 370 L 642 370 L 642 36 z"
         id="path100" />
    </g>
    <!-- drawing style -->
    <g
       stroke-linejoin="round"
       stroke-linecap="butt"
       stroke-miterlimit="1"
       fill="none"
       stroke-opacity="1"
       stroke="#000000"
       id="g102">
      <path
         d="M 642.5 36.5 L 649.5 36.5 L 649.5 370.5 L 642.5 370.5 L 642.5 36.5 z"
         id="path104" />
    </g>
    <!-- drawing style -->
    <g
       fill-opacity="1"
       fill-rule="nonzero"
       stroke="none"
       fill="#ffffff"
       id="g106">
      <path
         d="M 756 36 L 763 36 L 763 370 L 756 370 L 756 36 z"
         id="path108" />
    </g>
    <!-- drawing style -->
    <g
       stroke-linejoin="round"
       stroke-linecap="butt"
       stroke-miterlimit="1"
       fill="none"
       stroke-opacity="1"
       stroke="#000000"
       id="g110">
      <path
         d="M 756.5 36.5 L 763.5 36.5 L 763.5 370.5 L 756.5 370.5 L 756.5 36.5 z"
         id="path112" />
    </g>
    <!-- drawing style -->
    <g
       fill-opacity="1"
       fill-rule="nonzero"
       stroke="none"
       fill="#ffffff"
       id="g114">
      <path
         d="M 756 36 L 763 36 L 763 370 L 756 370 L 756 36 z"
         id="path116" />
    </g>
    <!-- drawing style -->
    <g
       stroke-linejoin="round"
       stroke-linecap="butt"
       stroke-miterlimit="1"
       fill="none"
       stroke-opacity="1"
       stroke="#000000"
       id="g118">
      <path
         d="M 756.5 36.5 L 763.5 36.5 L 763.5 370.5 L 756.5 370.5 L 756.5 36.5 z"
         id="path120" />
    </g>
    <!-- drawing style -->
    <g
       id="g122"
       transform="translate(-5.1724138,-2.5862069)"
       style="fill:#000000;fill-opacity:1;fill-rule:nonzero;stroke:none">
      <path
         d="m 79.421875,323.53125 0,1.15625 Q 78.75,324.375 78.148437,324.21094 77.546875,324.04687 77,324.04687 q -0.96875,0 -1.492188,0.375 -0.523437,0.375 -0.523437,1.07813 0,0.57812 0.34375,0.875 0.34375,0.29687 1.328125,0.46875 L 77.359375,327 q 1.328125,0.25 1.960937,0.88281 0.632813,0.63281 0.632813,1.69531 0,1.28125 -0.851563,1.9375 -0.851562,0.65625 -2.507812,0.65625 -0.609375,0 -1.3125,-0.14062 -0.703125,-0.14063 -1.453125,-0.42188 l 0,-1.21875 q 0.71875,0.40625 1.414062,0.60938 0.695313,0.20312 1.351563,0.20312 1.015625,0 1.570312,-0.39843 0.554688,-0.39844 0.554688,-1.13282 0,-0.64062 -0.398438,-1.00781 -0.398437,-0.36719 -1.304687,-0.53906 l -0.71875,-0.14063 q -1.328125,-0.26562 -1.914063,-0.82812 -0.585937,-0.5625 -0.585937,-1.5625 0,-1.17188 0.8125,-1.83594 0.8125,-0.66406 2.25,-0.66406 0.625,0 1.257812,0.10937 0.632813,0.10938 1.304688,0.32813 z m 3.398437,0.0469 0,1.85938 2.21875,0 0,0.84375 -2.21875,0 0,3.5625 q 0,0.79687 0.21875,1.02344 0.21875,0.22656 0.890625,0.22656 l 1.109375,0 0,0.90625 -1.109375,0 q -1.25,0 -1.726562,-0.46875 -0.476563,-0.46875 -0.476563,-1.6875 l 0,-3.5625 -0.78125,0 0,-0.84375 0.78125,0 0,-1.85938 1.09375,0 z m 6.173829,2.60938 q -0.859375,0 -1.367188,0.67969 -0.507812,0.67968 -0.507812,1.85156 0,1.1875 0.5,1.85937 0.5,0.67188 1.375,0.67188 0.859375,0 1.367187,-0.67969 0.507813,-0.67969 0.507813,-1.85156 0,-1.15625 -0.507813,-1.84375 -0.507812,-0.6875 -1.367187,-0.6875 z m 0,-0.90625 q 1.40625,0 2.210937,0.91406 0.804688,0.91406 0.804688,2.52344 0,1.60937 -0.804688,2.53125 -0.804687,0.92187 -2.210937,0.92187 -1.40625,0 -2.210938,-0.92187 -0.804687,-0.92188 -0.804687,-2.53125 0,-1.60938 0.804687,-2.52344 0.804688,-0.91406 2.210938,-0.91406 z m 5.841796,5.73437 0,3.48438 -1.078125,0 0,-9.0625 1.078125,0 0,1 q 0.34375,-0.59375 0.859375,-0.875 0.515625,-0.28125 1.234375,-0.28125 1.203125,0 1.953125,0.94531 0.75,0.94531 0.75,2.49219 0,1.54687 -0.75,2.5 -0.75,0.95312 -1.953125,0.95312 -0.71875,0 -1.234375,-0.28906 -0.515625,-0.28906 -0.859375,-0.86719 z m 3.671875,-2.29687 q 0,-1.1875 -0.492187,-1.85938 -0.492188,-0.67187 -1.335938,-0.67187 -0.859375,0 -1.351562,0.67187 -0.492188,0.67188 -0.492188,1.85938 0,1.1875 0.492188,1.86719 0.492187,0.67968 1.351562,0.67968 0.84375,0 1.335938,-0.67968 0.492187,-0.67969 0.492187,-1.86719 z"
         id="path124"
         inkscape:connector-curvature="0" />
    </g>
    <!-- drawing style -->
    <g
       stroke-linejoin="round"
       stroke-linecap="butt"
       stroke-miterlimit="1"
       fill="none"
       stroke-opacity="1"
       stroke="#000000"
       id="g126">
      <path
         d="M 65.5 333.5 L 293.5 333.5"
         id="path128" />
    </g>
    <!-- drawing style -->
    <g
       stroke-linejoin="round"
       stroke-linecap="butt"
       stroke-miterlimit="1"
       fill="none"
       stroke-opacity="1"
       stroke="#000000"
       id="g130">
      <path
         d="M 293.5 333.5 L 289.5 329.5"
         id="path132" />
    </g>
    <!-- drawing style -->
    <g
       stroke-linejoin="round"
       stroke-linecap="butt"
       stroke-miterlimit="1"
       fill="none"
       stroke-opacity="1"
       stroke="#000000"
       id="g134">
      <path
         d="M 293.5 333.5 L 289.5 337.5"
         id="path136" />
    </g>
    <!-- drawing style -->
    <g
       id="g138"
       transform="translate(-1.7328231,0.1465732)"
       style="fill:#000000;fill-opacity:1;fill-rule:nonzero;stroke:none">
      <path
         d="m 116.35938,116.21875 0,3.29688 1.48437,0 q 0.82813,0 1.28125,-0.42969 0.45313,-0.42969 0.45313,-1.22656 0,-0.78125 -0.45313,-1.21094 -0.45312,-0.42969 -1.28125,-0.42969 l -1.48437,0 z m -1.1875,-0.96875 2.67187,0 q 1.48438,0 2.23438,0.66406 0.75,0.66407 0.75,1.94532 0,1.29687 -0.75,1.96093 -0.75,0.66407 -2.23438,0.66407 l -1.48437,0 0,3.51562 -1.1875,0 0,-8.75 z m 11.00195,3.1875 q -0.1875,-0.0937 -0.39844,-0.14844 -0.21094,-0.0547 -0.47656,-0.0547 -0.90625,0 -1.39844,0.59375 -0.49219,0.59375 -0.49219,1.71875 l 0,3.45312 -1.07812,0 0,-6.5625 1.07812,0 0,1.01563 q 0.34375,-0.59375 0.89063,-0.88282 0.54687,-0.28906 1.32812,-0.28906 0.10938,0 0.24219,0.0156 0.13281,0.0156 0.28906,0.0469 l 0.0156,1.09375 z m 3.66797,-0.25 q -0.85938,0 -1.36719,0.67969 -0.50781,0.67969 -0.50781,1.85156 0,1.1875 0.5,1.85938 0.5,0.67187 1.375,0.67187 0.85937,0 1.36718,-0.67969 0.50782,-0.67968 0.50782,-1.85156 0,-1.15625 -0.50782,-1.84375 -0.50781,-0.6875 -1.36718,-0.6875 z m 0,-0.90625 q 1.40625,0 2.21093,0.91406 0.80469,0.91407 0.80469,2.52344 0,1.60938 -0.80469,2.53125 -0.80468,0.92188 -2.21093,0.92188 -1.40625,0 -2.21094,-0.92188 -0.80469,-0.92187 -0.80469,-2.53125 0,-1.60937 0.80469,-2.52344 0.80469,-0.91406 2.21094,-0.91406 z m 9.52929,0.40625 0,1.01563 q -0.46875,-0.26563 -0.92187,-0.39063 -0.45313,-0.125 -0.92188,-0.125 -1.0625,0 -1.64062,0.66406 -0.57813,0.66407 -0.57813,1.86719 0,1.20313 0.57813,1.86719 0.57812,0.66406 1.64062,0.66406 0.46875,0 0.92188,-0.125 0.45312,-0.125 0.92187,-0.375 l 0,1 q -0.45312,0.20313 -0.9375,0.3125 -0.48437,0.10938 -1.03125,0.10938 -1.48437,0 -2.35937,-0.92969 -0.875,-0.92969 -0.875,-2.52344 0,-1.59375 0.88281,-2.51562 0.88281,-0.92188 2.42969,-0.92188 0.48437,0 0.96094,0.10156 0.47656,0.10157 0.92968,0.30469 z m 7.48828,2.76563 0,0.51562 -4.96875,0 q 0.0781,1.125 0.67969,1.70313 0.60156,0.57812 1.66406,0.57812 0.625,0 1.21094,-0.14844 0.58594,-0.14843 1.16406,-0.46093 l 0,1.03125 q -0.59375,0.23437 -1.20312,0.36718 -0.60938,0.13282 -1.23438,0.13282 -1.5625,0 -2.48437,-0.91407 -0.92188,-0.91406 -0.92188,-2.47656 0,-1.60937 0.875,-2.55469 0.875,-0.94531 2.34375,-0.94531 1.32813,0 2.10157,0.85156 0.77343,0.85157 0.77343,2.32032 z m -1.07812,-0.32813 q -0.0156,-0.875 -0.5,-1.40625 -0.48438,-0.53125 -1.28125,-0.53125 -0.90625,0 -1.44531,0.51563 -0.53907,0.51562 -0.61719,1.4375 l 3.84375,-0.0156 z m 7.02344,-2.5 0,1.03125 q -0.45313,-0.23437 -0.94532,-0.35156 -0.49218,-0.11719 -1.02343,-0.11719 -0.79688,0 -1.20313,0.24219 -0.40625,0.24219 -0.40625,0.74219 0,0.375 0.28906,0.58593 0.28907,0.21094 1.16407,0.39844 l 0.35937,0.0937 q 1.15625,0.23438 1.64063,0.6875 0.48437,0.45313 0.48437,1.25 0,0.92188 -0.72656,1.45313 -0.72656,0.53125 -1.99219,0.53125 -0.53125,0 -1.10156,-0.10157 -0.57031,-0.10156 -1.19531,-0.30468 l 0,-1.125 q 0.59375,0.3125 1.17187,0.46875 0.57813,0.15625 1.15625,0.15625 0.75,0 1.16406,-0.25782 0.41407,-0.25781 0.41407,-0.74218 0,-0.4375 -0.29688,-0.67188 -0.29687,-0.23437 -1.29687,-0.45312 l -0.375,-0.0781 q -1,-0.21875 -1.44532,-0.65625 -0.44531,-0.4375 -0.44531,-1.1875 0,-0.9375 0.65625,-1.4375 0.65625,-0.5 1.85938,-0.5 0.59375,0 1.125,0.0859 0.53125,0.0859 0.96875,0.25781 z m 6.25195,0 0,1.03125 q -0.45312,-0.23437 -0.94531,-0.35156 -0.49219,-0.11719 -1.02344,-0.11719 -0.79687,0 -1.20312,0.24219 -0.40625,0.24219 -0.40625,0.74219 0,0.375 0.28906,0.58593 0.28906,0.21094 1.16406,0.39844 l 0.35938,0.0937 q 1.15625,0.23438 1.64062,0.6875 0.48438,0.45313 0.48438,1.25 0,0.92188 -0.72657,1.45313 -0.72656,0.53125 -1.99218,0.53125 -0.53125,0 -1.10157,-0.10157 -0.57031,-0.10156 -1.19531,-0.30468 l 0,-1.125 q 0.59375,0.3125 1.17188,0.46875 0.57812,0.15625 1.15625,0.15625 0.75,0 1.16406,-0.25782 0.41406,-0.25781 0.41406,-0.74218 0,-0.4375 -0.29687,-0.67188 -0.29688,-0.23437 -1.29688,-0.45312 l -0.375,-0.0781 q -1,-0.21875 -1.44531,-0.65625 -0.44531,-0.4375 -0.44531,-1.1875 0,-0.9375 0.65625,-1.4375 0.65625,-0.5 1.85937,-0.5 0.59375,0 1.125,0.0859 0.53125,0.0859 0.96875,0.25781 z m 2.11133,-2.375 1.1875,0 0,8.75 -1.1875,0 0,-8.75 z m 4.72656,0.96875 0,6.8125 1.4375,0 q 1.8125,0 2.64844,-0.82031 0.83594,-0.82031 0.83594,-2.60156 0,-1.75 -0.83594,-2.57032 -0.83594,-0.82031 -2.64844,-0.82031 l -1.4375,0 z m -1.1875,-0.96875 2.4375,0 q 2.54688,0 3.73438,1.05469 1.1875,1.05469 1.1875,3.30469 0,2.26562 -1.19532,3.32812 Q 169.67578,124 167.14453,124 l -2.4375,0 0,-8.75 z"
         id="path140"
         inkscape:connector-curvature="0" />
    </g>
    <!-- drawing style -->
    <g
       stroke-linejoin="round"
       stroke-linecap="butt"
       stroke-miterlimit="1"
       fill="none"
       stroke-opacity="1"
       stroke="#000000"
       id="g142">
      <path
         d="M 172.5 125.5 L 65.5 125.5"
         id="path144" />
    </g>
    <!-- drawing style -->
    <g
       stroke-linejoin="round"
       stroke-linecap="butt"
       stroke-miterlimit="1"
       fill="none"
       stroke-opacity="1"
       stroke="#000000"
       id="g146">
      <path
         d="M 65.5 125.5 L 69.5 121.5"
         id="path148" />
    </g>
    <!-- drawing style -->
    <g
       stroke-linejoin="round"
       stroke-linecap="butt"
       stroke-miterlimit="1"
       fill="none"
       stroke-opacity="1"
       stroke="#000000"
       id="g150">
      <path
         d="M 65.5 125.5 L 69.5 129.5"
         id="path152" />
    </g>
    <!-- drawing style -->
    <g
       id="g154"
       transform="translate(-4.3103448,-2.1551724)"
       style="fill:#000000;fill-opacity:1;fill-rule:nonzero;stroke:none">
      <path
         d="m 74.171875,196.25 1.1875,0 0,8.75 -1.1875,0 0,-8.75 z m 8.960937,4.78125 0,3.96875 -1.078125,0 0,-3.92188 q 0,-0.9375 -0.367187,-1.39843 -0.367188,-0.46094 -1.085938,-0.46094 -0.875,0 -1.382812,0.55469 -0.507813,0.55468 -0.507813,1.52343 l 0,3.70313 -1.078125,0 0,-6.5625 1.078125,0 0,1.01562 q 0.390625,-0.59375 0.914063,-0.88281 0.523437,-0.28906 1.210937,-0.28906 1.125,0 1.710938,0.69531 0.585937,0.69531 0.585937,2.05469 z m 3.183594,2.98437 0,3.48438 -1.078125,0 0,-9.0625 1.078125,0 0,1 q 0.34375,-0.59375 0.859375,-0.875 0.515625,-0.28125 1.234375,-0.28125 1.203125,0 1.953125,0.94531 0.75,0.94531 0.75,2.49219 0,1.54687 -0.75,2.5 -0.75,0.95312 -1.953125,0.95312 -0.71875,0 -1.234375,-0.28906 -0.515625,-0.28906 -0.859375,-0.86719 z m 3.671875,-2.29687 q 0,-1.1875 -0.492187,-1.85938 -0.492188,-0.67187 -1.335938,-0.67187 -0.859375,0 -1.351562,0.67187 -0.492188,0.67188 -0.492188,1.85938 0,1.1875 0.492188,1.86719 0.492187,0.67968 1.351562,0.67968 0.84375,0 1.335938,-0.67968 0.492187,-0.67969 0.492187,-1.86719 z m 2.789063,0.6875 0,-3.96875 1.078125,0 0,3.9375 q 0,0.92187 0.367187,1.39062 0.367188,0.46875 1.085938,0.46875 0.875,0 1.382812,-0.55468 0.507813,-0.55469 0.507813,-1.52344 l 0,-3.71875 1.078125,0 0,6.5625 -1.078125,0 0,-1.01563 q -0.390625,0.60938 -0.90625,0.89844 -0.515625,0.28906 -1.203125,0.28906 -1.140625,0 -1.726563,-0.70312 -0.585937,-0.70313 -0.585937,-2.0625 z m 8.792966,-5.82813 0,1.85938 2.21875,0 0,0.84375 -2.21875,0 0,3.5625 q 0,0.79687 0.21875,1.02344 0.21875,0.22656 0.89063,0.22656 l 1.10937,0 0,0.90625 -1.10937,0 q -1.25,0 -1.72656,-0.46875 -0.47657,-0.46875 -0.47657,-1.6875 l 0,-3.5625 -0.781248,0 0,-0.84375 0.781248,0 0,-1.85938 1.09375,0 z"
         id="path156"
         inkscape:connector-curvature="0" />
    </g>
    <!-- drawing style -->
    <g
       stroke-linejoin="round"
       stroke-linecap="butt"
       stroke-miterlimit="1"
       fill="none"
       stroke-opacity="1"
       stroke="#000000"
       id="g158">
      <path
         d="M 65.5 206.5 L 293.5 206.5"
         id="path160" />
    </g>
    <!-- drawing style -->
    <g
       stroke-linejoin="round"
       stroke-linecap="butt"
       stroke-miterlimit="1"
       fill="none"
       stroke-opacity="1"
       stroke="#000000"
       id="g162">
      <path
         d="M 293.5 206.5 L 289.5 202.5"
         id="path164" />
    </g>
    <!-- drawing style -->
    <g
       stroke-linejoin="round"
       stroke-linecap="butt"
       stroke-miterlimit="1"
       fill="none"
       stroke-opacity="1"
       stroke="#000000"
       id="g166">
      <path
         d="M 293.5 206.5 L 289.5 210.5"
         id="path168" />
    </g>
    <!-- drawing style -->
    <g
       id="g170"
       transform="translate(-7.3275862,0)"
       style="fill:#000000;fill-opacity:1;fill-rule:nonzero;stroke:none">
      <path
         d="m 74.171875,54.25 5.53125,0 0,1 -4.34375,0 0,2.59375 4.171875,0 0,0.984375 -4.171875,0 0,3.171875 4.453125,0 0,1 -5.640625,0 0,-8.75 z m 13.003906,2.1875 -2.375,3.1875 L 87.285156,63 86.019531,63 84.113281,60.421875 82.207031,63 l -1.28125,0 2.546875,-3.4375 -2.328125,-3.125 1.265625,0 1.75,2.34375 1.734375,-2.34375 1.28125,0 z m 7.257813,3.015625 0,0.515625 -4.96875,0 q 0.07813,1.125 0.679687,1.703125 0.601563,0.578125 1.664063,0.578125 0.625,0 1.210937,-0.148438 0.585938,-0.148437 1.164063,-0.460937 l 0,1.03125 q -0.59375,0.234375 -1.203125,0.367187 -0.609375,0.132813 -1.234375,0.132813 -1.5625,0 -2.484375,-0.914063 -0.921875,-0.914062 -0.921875,-2.476562 0,-1.609375 0.875,-2.554688 0.875,-0.945312 2.34375,-0.945312 1.328125,0 2.101562,0.851562 0.773438,0.851563 0.773438,2.320313 z M 93.355469,59.125 q -0.01563,-0.875 -0.5,-1.40625 -0.484375,-0.53125 -1.28125,-0.53125 -0.90625,0 -1.445313,0.515625 -0.539062,0.515625 -0.617187,1.4375 l 3.84375,-0.01563 z m 7.570311,-2.4375 0,1.015625 q -0.46875,-0.265625 -0.92187,-0.390625 -0.453129,-0.125 -0.921879,-0.125 -1.0625,0 -1.640625,0.664062 -0.578125,0.664063 -0.578125,1.867188 0,1.203125 0.578125,1.867187 0.578125,0.664063 1.640625,0.664063 0.46875,0 0.921879,-0.125 0.45312,-0.125 0.92187,-0.375 l 0,1 q -0.45312,0.203125 -0.937499,0.3125 -0.484375,0.109375 -1.03125,0.109375 -1.484375,0 -2.359375,-0.929688 -0.875,-0.929687 -0.875,-2.523437 0,-1.59375 0.882813,-2.515625 0.882812,-0.921875 2.429687,-0.921875 0.484375,0 0.960938,0.101562 0.476566,0.101563 0.929686,0.304688 z m 1.75391,3.71875 0,-3.96875 1.07812,0 0,3.9375 q 0,0.921875 0.36719,1.390625 0.36719,0.46875 1.08594,0.46875 0.875,0 1.38281,-0.554688 0.50781,-0.554687 0.50781,-1.523437 l 0,-3.71875 1.07813,0 0,6.5625 -1.07813,0 0,-1.015625 q -0.39062,0.609375 -0.90625,0.898437 -0.51562,0.289063 -1.20312,0.289063 -1.14063,0 -1.72656,-0.703125 -0.58594,-0.703125 -0.58594,-2.0625 z m 8.79297,-5.828125 0,1.859375 2.21875,0 0,0.84375 -2.21875,0 0,3.5625 q 0,0.796875 0.21875,1.023437 0.21875,0.226563 0.89062,0.226563 l 1.10938,0 0,0.90625 -1.10938,0 q -1.25,0 -1.72656,-0.46875 -0.47656,-0.46875 -0.47656,-1.6875 l 0,-3.5625 -0.78125,0 0,-0.84375 0.78125,0 0,-1.859375 1.09375,0 z m 9.25195,4.875 0,0.515625 -4.96875,0 q 0.0781,1.125 0.67969,1.703125 0.60156,0.578125 1.66406,0.578125 0.625,0 1.21094,-0.148438 0.58593,-0.148437 1.16406,-0.460937 l 0,1.03125 q -0.59375,0.234375 -1.20313,0.367187 -0.60937,0.132813 -1.23437,0.132813 -1.5625,0 -2.48438,-0.914063 -0.92187,-0.914062 -0.92187,-2.476562 0,-1.609375 0.875,-2.554688 0.875,-0.945312 2.34375,-0.945312 1.32812,0 2.10156,0.851562 0.77344,0.851563 0.77344,2.320313 z M 119.64648,59.125 q -0.0156,-0.875 -0.5,-1.40625 -0.48437,-0.53125 -1.28125,-0.53125 -0.90625,0 -1.44531,0.515625 -0.53906,0.515625 -0.61719,1.4375 l 3.84375,-0.01563 z"
         id="path172"
         inkscape:connector-curvature="0" />
    </g>
    <!-- drawing style -->
    <g
       stroke-linejoin="round"
       stroke-linecap="butt"
       stroke-miterlimit="1"
       fill="none"
       stroke-opacity="1"
       stroke="#000000"
       id="g174">
      <path
         d="M 65.5 64.5 L 172.5 64.5"
         id="path176" />
    </g>
    <!-- drawing style -->
    <g
       stroke-linejoin="round"
       stroke-linecap="butt"
       stroke-miterlimit="1"
       fill="none"
       stroke-opacity="1"
       stroke="#000000"
       id="g178">
      <path
         d="M 172.5 64.5 L 168.5 60.5"
         id="path180" />
    </g>
    <!-- drawing style -->
    <g
       stroke-linejoin="round"
       stroke-linecap="butt"
       stroke-miterlimit="1"
       fill="none"
       stroke-opacity="1"
       stroke="#000000"
       id="g182">
      <path
         d="M 172.5 64.5 L 168.5 68.5"
         id="path184" />
    </g>
    <!-- drawing style -->
    <g
       id="g186"
       transform="translate(-7.1115319,0)"
       style="fill:#000000;fill-opacity:1;fill-rule:nonzero;stroke:none">
      <path
         d="m 193.59375,79.03125 0,3.96875 -1.07813,0 0,-3.921875 q 0,-0.9375 -0.36718,-1.398438 -0.36719,-0.460937 -1.08594,-0.460937 -0.875,0 -1.38281,0.554687 -0.50782,0.554688 -0.50782,1.523438 l 0,3.703125 -1.07812,0 0,-6.5625 1.07812,0 0,1.015625 q 0.39063,-0.59375 0.91407,-0.882813 0.52343,-0.289062 1.21093,-0.289062 1.125,0 1.71094,0.695312 0.58594,0.695313 0.58594,2.054688 z m 7.76172,0.421875 0,0.515625 -4.96875,0 q 0.0781,1.125 0.67969,1.703125 0.60156,0.578125 1.66406,0.578125 0.625,0 1.21094,-0.148438 0.58593,-0.148437 1.16406,-0.460937 l 0,1.03125 q -0.59375,0.234375 -1.20313,0.367187 -0.60937,0.132813 -1.23437,0.132813 -1.5625,0 -2.48438,-0.914063 -0.92187,-0.914062 -0.92187,-2.476562 0,-1.609375 0.875,-2.554688 0.875,-0.945312 2.34375,-0.945312 1.32812,0 2.10156,0.851562 0.77344,0.851563 0.77344,2.320313 z M 200.27734,79.125 q -0.0156,-0.875 -0.5,-1.40625 -0.48437,-0.53125 -1.28125,-0.53125 -0.90625,0 -1.44531,0.515625 -0.53906,0.515625 -0.61719,1.4375 l 3.84375,-0.01563 z m 2.21094,-2.6875 1.07813,0 1.35937,5.125 1.32813,-5.125 1.28125,0 1.34375,5.125 1.34375,-5.125 1.07812,0 -1.71875,6.5625 -1.26562,0 -1.42188,-5.375 -1.40625,5.375 -1.28125,0 -1.71875,-6.5625 z"
         id="path188"
         inkscape:connector-curvature="0" />
    </g>
    <!-- drawing style -->
    <g
       stroke-linejoin="round"
       stroke-linecap="butt"
       stroke-miterlimit="1"
       fill="none"
       stroke-opacity="1"
       stroke="#000000"
       id="g190">
      <path
         d="M 179.5 84.5 L 242.5 84.5"
         id="path192" />
    </g>
    <!-- drawing style -->
    <g
       stroke-linejoin="round"
       stroke-linecap="butt"
       stroke-miterlimit="1"
       fill="none"
       stroke-opacity="1"
       stroke="#000000"
       id="g194">
      <path
         d="M 242.5 84.5 L 238.5 80.5"
         id="path196" />
    </g>
    <!-- drawing style -->
    <g
       stroke-linejoin="round"
       stroke-linecap="butt"
       stroke-miterlimit="1"
       fill="none"
       stroke-opacity="1"
       stroke="#000000"
       id="g198">
      <path
         d="M 242.5 84.5 L 238.5 88.5"
         id="path200" />
    </g>
    <!-- drawing style -->
    <g
       fill-opacity="1"
       fill-rule="nonzero"
       stroke="none"
       fill="#000000"
       id="g202">
      <path
         d="M 309.171875 343.25 L 314.703125 343.25 L 314.703125 344.25 L 310.359375 344.25 L 310.359375 346.84375 L 314.53125 346.84375 L 314.53125 347.828125 L 310.359375 347.828125 L 310.359375 351 L 314.8125 351 L 314.8125 352 L 309.171875 352 L 309.171875 343.25 z M 322.17578125 348.03125 L 322.17578125 352 L 321.09765625 352 L 321.09765625 348.078125 Q 321.09765625 347.140625 320.73046875 346.6796875 Q 320.36328125 346.21875 319.64453125 346.21875 Q 318.76953125 346.21875 318.26171875 346.7734375 Q 317.75390625 347.328125 317.75390625 348.296875 L 317.75390625 352 L 316.67578125 352 L 316.67578125 345.4375 L 317.75390625 345.4375 L 317.75390625 346.453125 Q 318.14453125 345.859375 318.66796875 345.5703125 Q 319.19140625 345.28125 319.87890625 345.28125 Q 321.00390625 345.28125 321.58984375 345.9765625 Q 322.17578125 346.671875 322.17578125 348.03125 z M 328.640625 346.4375 L 328.640625 342.875 L 329.71875 342.875 L 329.71875 352 L 328.640625 352 L 328.640625 351.015625 Q 328.296875 351.59375 327.78125 351.8828125 Q 327.265625 352.171875 326.53125 352.171875 Q 325.34375 352.171875 324.59375 351.21875 Q 323.84375 350.265625 323.84375 348.71875 Q 323.84375 347.171875 324.59375 346.2265625 Q 325.34375 345.28125 326.53125 345.28125 Q 327.265625 345.28125 327.78125 345.5625 Q 328.296875 345.84375 328.640625 346.4375 z M 324.96875 348.71875 Q 324.96875 349.90625 325.453125 350.5859375 Q 325.9375 351.265625 326.796875 351.265625 Q 327.65625 351.265625 328.1484375 350.5859375 Q 328.640625 349.90625 328.640625 348.71875 Q 328.640625 347.53125 328.1484375 346.859375 Q 327.65625 346.1875 326.796875 346.1875 Q 325.9375 346.1875 325.453125 346.859375 Q 324.96875 347.53125 324.96875 348.71875 z"
         id="path204" />
    </g>
    <!-- drawing style -->
    <g
       stroke-linejoin="round"
       stroke-linecap="butt"
       stroke-miterlimit="1"
       fill="none"
       stroke-opacity="1"
       stroke="#000000"
       id="g206">
      <path
         d="M 300.5 353.5 L 642.5 353.5"
         id="path208" />
    </g>
    <!-- drawing style -->
    <g
       fill-opacity="1"
       fill-rule="nonzero"
       stroke="none"
       fill="#000000"
       id="g210">
      <path
         d="M 638 349 C 640.2091389993232 349 642 350.79086100067684 642 353 C 642 355.20913899932316 640.2091389993232 357 638 357 L 638 353 z"
         id="path212" />
    </g>
    <!-- drawing style -->
    <g
       stroke-linejoin="round"
       stroke-linecap="butt"
       stroke-miterlimit="1"
       fill="none"
       stroke-opacity="1"
       stroke="#000000"
       id="g214">
      <path
         d="M 303.5 352.5 C 303.5 350.84314575050763 300.81370849898474 349.5 297.5 349.5 C 294.18629150101526 349.5 291.5 350.84314575050763 291.5 352.5"
         id="path216" />
    </g>
    <!-- drawing style -->
    <g
       stroke-linejoin="round"
       stroke-linecap="butt"
       stroke-miterlimit="1"
       fill="none"
       stroke-opacity="1"
       stroke="#000000"
       id="g218">
      <path
         d="M 305.5 347.5 C 305.5 345.84314575050763 301.9182779986464 344.5 297.5 344.5 C 293.0817220013537 344.5 289.5 345.84314575050763 289.5 347.5"
         id="path220" />
    </g>
    <!-- drawing style -->
    <g
       stroke-linejoin="round"
       stroke-linecap="butt"
       stroke-miterlimit="1"
       fill="none"
       stroke-opacity="1"
       stroke="#000000"
       id="g222">
      <path
         d="M 307.5 342.5 C 307.5 340.84314575050763 303.02284749830795 339.5 297.5 339.5 C 291.97715250169205 339.5 287.5 340.84314575050763 287.5 342.5"
         id="path224" />
    </g>
    <!-- drawing style -->
    <g
       stroke-linejoin="round"
       stroke-linecap="butt"
       stroke-miterlimit="1"
       fill="none"
       stroke-opacity="1"
       stroke="#000000"
       id="g226">
      <path
         d="M 300.5 290.5 L 756.5 290.5"
         id="path228" />
    </g>
    <!-- drawing style -->
    <g
       fill-opacity="1"
       fill-rule="nonzero"
       stroke="none"
       fill="#000000"
       id="g230">
      <path
         d="M 752 286 C 754.2091389993232 286 756 287.79086100067684 756 290 C 756 292.20913899932316 754.2091389993232 294 752 294 L 752 290 z"
         id="path232" />
    </g>
    <!-- drawing style -->
    <g
       id="g234"
       transform="translate(-18.534482,-0.86206897)"
       style="fill:#000000;fill-opacity:1;fill-rule:nonzero;stroke:none">
      <path
         d="m 326.17187,260.25 5.53125,0 0,1 -4.34375,0 0,2.59375 4.17188,0 0,0.98437 -4.17188,0 0,3.17188 4.45313,0 0,1 -5.64063,0 0,-8.75 z m 13.00391,2.1875 -2.375,3.1875 2.48438,3.375 -1.26563,0 -1.90625,-2.57813 -1.90625,2.57813 -1.28125,0 2.54688,-3.4375 -2.32813,-3.125 1.26563,0 1.75,2.34375 1.73437,-2.34375 1.28125,0 z m 7.25781,3.01562 0,0.51563 -4.96875,0 q 0.0781,1.125 0.67969,1.70312 0.60156,0.57813 1.66406,0.57813 0.625,0 1.21094,-0.14844 0.58594,-0.14844 1.16406,-0.46094 l 0,1.03125 q -0.59375,0.23438 -1.20312,0.36719 -0.60938,0.13281 -1.23438,0.13281 -1.5625,0 -2.48437,-0.91406 -0.92188,-0.91406 -0.92188,-2.47656 0,-1.60938 0.875,-2.55469 0.875,-0.94531 2.34375,-0.94531 1.32813,0 2.10157,0.85156 0.77343,0.85156 0.77343,2.32031 z m -1.07812,-0.32812 q -0.0156,-0.875 -0.5,-1.40625 -0.48438,-0.53125 -1.28125,-0.53125 -0.90625,0 -1.44531,0.51562 -0.53907,0.51563 -0.61719,1.4375 l 3.84375,-0.0156 z m 7.57031,-2.4375 0,1.01562 q -0.46875,-0.26562 -0.92187,-0.39062 -0.45313,-0.125 -0.92188,-0.125 -1.0625,0 -1.64062,0.66406 -0.57813,0.66406 -0.57813,1.86719 0,1.20312 0.57813,1.86719 0.57812,0.66406 1.64062,0.66406 0.46875,0 0.92188,-0.125 0.45312,-0.125 0.92187,-0.375 l 0,1 q -0.45312,0.20312 -0.9375,0.3125 -0.48437,0.10937 -1.03125,0.10937 -1.48437,0 -2.35937,-0.92968 -0.875,-0.92969 -0.875,-2.52344 0,-1.59375 0.88281,-2.51563 0.88281,-0.92187 2.42969,-0.92187 0.48437,0 0.96093,0.10156 0.47657,0.10156 0.92969,0.30469 z m 1.75391,3.71875 0,-3.96875 1.07812,0 0,3.9375 q 0,0.92187 0.36719,1.39062 0.36719,0.46875 1.08594,0.46875 0.875,0 1.38281,-0.55468 0.50781,-0.55469 0.50781,-1.52344 l 0,-3.71875 1.07813,0 0,6.5625 -1.07813,0 0,-1.01563 q -0.39062,0.60938 -0.90625,0.89844 -0.51562,0.28906 -1.20312,0.28906 -1.14063,0 -1.72657,-0.70312 -0.58593,-0.70313 -0.58593,-2.0625 z m 8.79297,-5.82813 0,1.85938 2.21875,0 0,0.84375 -2.21875,0 0,3.5625 q 0,0.79687 0.21875,1.02344 0.21875,0.22656 0.89062,0.22656 l 1.10938,0 0,0.90625 -1.10938,0 q -1.25,0 -1.72656,-0.46875 -0.47656,-0.46875 -0.47656,-1.6875 l 0,-3.5625 -0.78125,0 0,-0.84375 0.78125,0 0,-1.85938 1.09375,0 z m 9.25195,4.875 0,0.51563 -4.96875,0 q 0.0781,1.125 0.67969,1.70312 0.60156,0.57813 1.66406,0.57813 0.625,0 1.21094,-0.14844 0.58593,-0.14844 1.16406,-0.46094 l 0,1.03125 q -0.59375,0.23438 -1.20313,0.36719 -0.60937,0.13281 -1.23437,0.13281 -1.5625,0 -2.48438,-0.91406 -0.92187,-0.91406 -0.92187,-2.47656 0,-1.60938 0.875,-2.55469 0.875,-0.94531 2.34375,-0.94531 1.32812,0 2.10156,0.85156 0.77344,0.85156 0.77344,2.32031 z m -1.07813,-0.32812 q -0.0156,-0.875 -0.5,-1.40625 -0.48437,-0.53125 -1.28125,-0.53125 -0.90625,0 -1.44531,0.51562 -0.53906,0.51563 -0.61719,1.4375 l 3.84375,-0.0156 z m 7.03907,-0.23438 q 0.375,0.14063 0.73437,0.5625 0.35938,0.42188 0.73438,1.15625 l 1.20312,2.39063 -1.28125,0 -1.10937,-2.25 q -0.4375,-0.875 -0.84375,-1.16406 -0.40625,-0.28907 -1.10938,-0.28907 l -1.29687,0 0,3.70313 -1.1875,0 0,-8.75 2.67187,0 q 1.5,0 2.24219,0.625 0.74219,0.625 0.74219,1.89062 0,0.82813 -0.38282,1.375 -0.38281,0.54688 -1.11718,0.75 z m -2.96875,-3.67187 0,3.10937 1.48437,0 q 0.85938,0 1.29688,-0.39843 0.4375,-0.39844 0.4375,-1.16407 0,-0.76562 -0.4375,-1.15625 -0.4375,-0.39062 -1.29688,-0.39062 l -1.48437,0 z m 12.72851,4.23437 0,0.51563 -4.96875,0 q 0.0781,1.125 0.67969,1.70312 0.60156,0.57813 1.66406,0.57813 0.625,0 1.21094,-0.14844 0.58594,-0.14844 1.16406,-0.46094 l 0,1.03125 q -0.59375,0.23438 -1.20312,0.36719 -0.60938,0.13281 -1.23438,0.13281 -1.5625,0 -2.48437,-0.91406 -0.92188,-0.91406 -0.92188,-2.47656 0,-1.60938 0.875,-2.55469 0.875,-0.94531 2.34375,-0.94531 1.32813,0 2.10156,0.85156 0.77344,0.85156 0.77344,2.32031 z m -1.07812,-0.32812 q -0.0156,-0.875 -0.5,-1.40625 -0.48438,-0.53125 -1.28125,-0.53125 -0.90625,0 -1.44532,0.51562 -0.53906,0.51563 -0.61718,1.4375 l 3.84375,-0.0156 z m 7.02343,-2.5 0,1.03125 q -0.45312,-0.23438 -0.94531,-0.35156 -0.49219,-0.11719 -1.02344,-0.11719 -0.79687,0 -1.20312,0.24219 -0.40625,0.24218 -0.40625,0.74218 0,0.375 0.28906,0.58594 0.28906,0.21094 1.16406,0.39844 l 0.35938,0.0937 q 1.15625,0.23437 1.64062,0.6875 0.48438,0.45312 0.48438,1.25 0,0.92187 -0.72656,1.45312 -0.72657,0.53125 -1.99219,0.53125 -0.53125,0 -1.10156,-0.10156 -0.57032,-0.10156 -1.19532,-0.30469 l 0,-1.125 q 0.59375,0.3125 1.17188,0.46875 0.57812,0.15625 1.15625,0.15625 0.75,0 1.16406,-0.25781 0.41406,-0.25781 0.41406,-0.74219 0,-0.4375 -0.29687,-0.67187 -0.29688,-0.23438 -1.29688,-0.45313 l -0.375,-0.0781 q -1,-0.21875 -1.44531,-0.65625 -0.44531,-0.4375 -0.44531,-1.1875 0,-0.9375 0.65625,-1.4375 0.65625,-0.5 1.85937,-0.5 0.59375,0 1.125,0.0859 0.53125,0.0859 0.96875,0.25781 z m 3.11133,5.39062 0,3.48438 -1.07812,0 0,-9.0625 1.07812,0 0,1 q 0.34375,-0.59375 0.85938,-0.875 0.51562,-0.28125 1.23437,-0.28125 1.20313,0 1.95313,0.94531 0.75,0.94531 0.75,2.49219 0,1.54687 -0.75,2.5 -0.75,0.95312 -1.95313,0.95312 -0.71875,0 -1.23437,-0.28906 -0.51563,-0.28906 -0.85938,-0.86719 z m 3.67188,-2.29687 q 0,-1.1875 -0.49219,-1.85938 -0.49219,-0.67187 -1.33594,-0.67187 -0.85937,0 -1.35156,0.67187 -0.49219,0.67188 -0.49219,1.85938 0,1.1875 0.49219,1.86719 0.49219,0.67968 1.35156,0.67968 0.84375,0 1.33594,-0.67968 0.49219,-0.67969 0.49219,-1.86719 z m 5.44531,-2.53125 q -0.85937,0 -1.36719,0.67969 -0.50781,0.67968 -0.50781,1.85156 0,1.1875 0.5,1.85937 0.5,0.67188 1.375,0.67188 0.85938,0 1.36719,-0.67969 0.50781,-0.67969 0.50781,-1.85156 0,-1.15625 -0.50781,-1.84375 -0.50781,-0.6875 -1.36719,-0.6875 z m 0,-0.90625 q 1.40625,0 2.21094,0.91406 0.80469,0.91406 0.80469,2.52344 0,1.60937 -0.80469,2.53125 -0.80469,0.92187 -2.21094,0.92187 -1.40625,0 -2.21094,-0.92187 -0.80468,-0.92188 -0.80468,-2.53125 0,-1.60938 0.80468,-2.52344 0.80469,-0.91406 2.21094,-0.91406 z m 10.26367,2.75 0,3.96875 -1.07812,0 0,-3.92188 q 0,-0.9375 -0.36719,-1.39843 -0.36719,-0.46094 -1.08594,-0.46094 -0.875,0 -1.38281,0.55469 -0.50781,0.55468 -0.50781,1.52343 l 0,3.70313 -1.07813,0 0,-6.5625 1.07813,0 0,1.01562 q 0.39062,-0.59375 0.91406,-0.88281 0.52344,-0.28906 1.21094,-0.28906 1.125,0 1.71093,0.69531 0.58594,0.69531 0.58594,2.05469 z m 6.32422,-2.40625 0,1.03125 q -0.45312,-0.23438 -0.94531,-0.35156 -0.49219,-0.11719 -1.02344,-0.11719 -0.79687,0 -1.20312,0.24219 -0.40625,0.24218 -0.40625,0.74218 0,0.375 0.28906,0.58594 0.28906,0.21094 1.16406,0.39844 l 0.35938,0.0937 q 1.15625,0.23437 1.64062,0.6875 0.48438,0.45312 0.48438,1.25 0,0.92187 -0.72657,1.45312 -0.72656,0.53125 -1.99218,0.53125 -0.53125,0 -1.10157,-0.10156 -0.57031,-0.10156 -1.19531,-0.30469 l 0,-1.125 q 0.59375,0.3125 1.17188,0.46875 0.57812,0.15625 1.15625,0.15625 0.75,0 1.16406,-0.25781 0.41406,-0.25781 0.41406,-0.74219 0,-0.4375 -0.29687,-0.67187 -0.29688,-0.23438 -1.29688,-0.45313 l -0.375,-0.0781 q -1,-0.21875 -1.44531,-0.65625 -0.44531,-0.4375 -0.44531,-1.1875 0,-0.9375 0.65625,-1.4375 0.65625,-0.5 1.85937,-0.5 0.59375,0 1.125,0.0859 0.53125,0.0859 0.96875,0.25781 z m 7.68945,2.82812 0,0.51563 -4.96875,0 q 0.0781,1.125 0.67969,1.70312 0.60156,0.57813 1.66406,0.57813 0.625,0 1.21094,-0.14844 0.58594,-0.14844 1.16406,-0.46094 l 0,1.03125 q -0.59375,0.23438 -1.20312,0.36719 -0.60938,0.13281 -1.23438,0.13281 -1.5625,0 -2.48437,-0.91406 -0.92188,-0.91406 -0.92188,-2.47656 0,-1.60938 0.875,-2.55469 0.875,-0.94531 2.34375,-0.94531 1.32813,0 2.10157,0.85156 0.77343,0.85156 0.77343,2.32031 z m -1.07812,-0.32812 q -0.0156,-0.875 -0.5,-1.40625 -0.48438,-0.53125 -1.28125,-0.53125 -0.90625,0 -1.44531,0.51562 -0.53907,0.51563 -0.61719,1.4375 l 3.84375,-0.0156 z"
         id="path236"
         inkscape:connector-curvature="0" />
    </g>
    <!-- drawing style -->
    <g
       stroke-linejoin="round"
       stroke-dasharray="5,5"
       stroke-linecap="butt"
       stroke-miterlimit="1"
       fill="none"
       stroke-opacity="1"
       stroke="#000000"
       id="g238">
      <path
         d="M 414.5 270.5 L 300.5 270.5"
         id="path240" />
    </g>
    <!-- drawing style -->
    <g
       fill-opacity="1"
       fill-rule="evenodd"
       stroke="none"
       fill="#000000"
       id="g242">
      <path
         d="M 300 270 L 304 266 L 304 274 z"
         id="path244" />
    </g>
    <!-- drawing style -->
    <g
       id="g246"
       transform="translate(-1.7241379,-0.86206897)"
       style="fill:#000000;fill-opacity:1;fill-rule:nonzero;stroke:none">
      <path
         d="m 312.73437,281.04687 q -1.29687,0 -2.05468,0.96094 -0.75782,0.96094 -0.75782,2.63281 0,1.64063 0.75782,2.60157 0.75781,0.96093 2.05468,0.96093 1.28125,0 2.03907,-0.96093 0.75781,-0.96094 0.75781,-2.60157 0,-1.67187 -0.75781,-2.63281 -0.75782,-0.96094 -2.03907,-0.96094 z m 0,-0.95312 q 1.82813,0 2.92969,1.23437 1.10156,1.23438 1.10156,3.3125 0,2.0625 -1.10156,3.29688 -1.10156,1.23437 -2.92969,1.23437 -1.84375,0 -2.95312,-1.23437 -1.10938,-1.23438 -1.10938,-3.29688 0,-2.07812 1.10938,-3.3125 1.10937,-1.23437 2.95312,-1.23437 z m 5.72657,6.3125 0,-3.96875 1.07812,0 0,3.9375 q 0,0.92187 0.36719,1.39062 0.36719,0.46875 1.08594,0.46875 0.875,0 1.38281,-0.55468 0.50781,-0.55469 0.50781,-1.52344 l 0,-3.71875 1.07813,0 0,6.5625 -1.07813,0 0,-1.01563 q -0.39062,0.60938 -0.90625,0.89844 -0.51562,0.28906 -1.20312,0.28906 -1.14063,0 -1.72657,-0.70312 -0.58593,-0.70313 -0.58593,-2.0625 z m 8.79297,-5.82813 0,1.85938 2.21875,0 0,0.84375 -2.21875,0 0,3.5625 q 0,0.79687 0.21875,1.02344 0.21875,0.22656 0.89062,0.22656 l 1.10938,0 0,0.90625 -1.10938,0 q -1.25,0 -1.72656,-0.46875 -0.47656,-0.46875 -0.47656,-1.6875 l 0,-3.5625 -0.78125,0 0,-0.84375 0.78125,0 0,-1.85938 1.09375,0 z m 4.67382,7.4375 0,3.48438 -1.07812,0 0,-9.0625 1.07812,0 0,1 q 0.34375,-0.59375 0.85938,-0.875 0.51562,-0.28125 1.23437,-0.28125 1.20313,0 1.95313,0.94531 0.75,0.94531 0.75,2.49219 0,1.54687 -0.75,2.5 -0.75,0.95312 -1.95313,0.95312 -0.71875,0 -1.23437,-0.28906 -0.51563,-0.28906 -0.85938,-0.86719 z m 3.67188,-2.29687 q 0,-1.1875 -0.49219,-1.85938 -0.49219,-0.67187 -1.33594,-0.67187 -0.85937,0 -1.35156,0.67187 -0.49219,0.67188 -0.49219,1.85938 0,1.1875 0.49219,1.86719 0.49219,0.67968 1.35156,0.67968 0.84375,0 1.33594,-0.67968 0.49219,-0.67969 0.49219,-1.86719 z m 2.78906,0.6875 0,-3.96875 1.07813,0 0,3.9375 q 0,0.92187 0.36718,1.39062 0.36719,0.46875 1.08594,0.46875 0.875,0 1.38281,-0.55468 0.50782,-0.55469 0.50782,-1.52344 l 0,-3.71875 1.07812,0 0,6.5625 -1.07812,0 0,-1.01563 q -0.39063,0.60938 -0.90625,0.89844 -0.51563,0.28906 -1.20313,0.28906 -1.14062,0 -1.72656,-0.70312 -0.58594,-0.70313 -0.58594,-2.0625 z m 8.79297,-5.82813 0,1.85938 2.21875,0 0,0.84375 -2.21875,0 0,3.5625 q 0,0.79687 0.21875,1.02344 0.21875,0.22656 0.89063,0.22656 l 1.10937,0 0,0.90625 -1.10937,0 q -1.25,0 -1.72657,-0.46875 -0.47656,-0.46875 -0.47656,-1.6875 l 0,-3.5625 -0.78125,0 0,-0.84375 0.78125,0 0,-1.85938 1.09375,0 z"
         id="path248"
         inkscape:connector-curvature="0" />
    </g>
    <!-- drawing style -->
    <g
       stroke-linejoin="round"
       stroke-linecap="butt"
       stroke-miterlimit="1"
       fill="none"
       stroke-opacity="1"
       stroke="#000000"
       id="g250">
      <path
         d="M 300.5 290.5 L 642.5 290.5"
         id="path252" />
    </g>
    <!-- drawing style -->
    <g
       fill-opacity="1"
       fill-rule="nonzero"
       stroke="none"
       fill="#000000"
       id="g254">
      <path
         d="M 638 286 C 640.2091389993232 286 642 287.79086100067684 642 290 C 642 292.20913899932316 640.2091389993232 294 638 294 L 638 290 z"
         id="path256" />
    </g>
    <!-- drawing style -->
    <g
       stroke-linejoin="round"
       stroke-linecap="butt"
       stroke-miterlimit="1"
       fill="none"
       stroke-opacity="1"
       stroke="#000000"
       id="g258">
      <path
         d="M 303.5 289.5 C 303.5 287.84314575050763 300.81370849898474 286.5 297.5 286.5 C 294.18629150101526 286.5 291.5 287.84314575050763 291.5 289.5"
         id="path260" />
    </g>
    <!-- drawing style -->
    <g
       stroke-linejoin="round"
       stroke-linecap="butt"
       stroke-miterlimit="1"
       fill="none"
       stroke-opacity="1"
       stroke="#000000"
       id="g262">
      <path
         d="M 305.5 284.5 C 305.5 282.84314575050763 301.9182779986464 281.5 297.5 281.5 C 293.0817220013537 281.5 289.5 282.84314575050763 289.5 284.5"
         id="path264" />
    </g>
    <!-- drawing style -->
    <g
       stroke-linejoin="round"
       stroke-linecap="butt"
       stroke-miterlimit="1"
       fill="none"
       stroke-opacity="1"
       stroke="#000000"
       id="g266">
      <path
         d="M 307.5 279.5 C 307.5 277.84314575050763 303.02284749830795 276.5 297.5 276.5 C 291.97715250169205 276.5 287.5 277.84314575050763 287.5 279.5"
         id="path268" />
    </g>
    <!-- drawing style -->
    <g
       stroke-linejoin="round"
       stroke-linecap="butt"
       stroke-miterlimit="1"
       fill="none"
       stroke-opacity="1"
       stroke="#000000"
       id="g270">
      <path
         d="M 300.5 353.5 L 756.5 353.5"
         id="path272" />
    </g>
    <!-- drawing style -->
    <g
       fill-opacity="1"
       fill-rule="nonzero"
       stroke="none"
       fill="#000000"
       id="g274">
      <path
         d="M 752 349 C 754.2091389993232 349 756 350.79086100067684 756 353 C 756 355.20913899932316 754.2091389993232 357 752 357 L 752 353 z"
         id="path276" />
    </g>
    <!-- drawing style -->
    <g
       id="g278"
       transform="translate(-6.0344828,0.43103448)"
       style="fill:#000000;fill-opacity:1;fill-rule:nonzero;stroke:none">
      <path
         d="m 309.17187,213.25 5.53125,0 0,1 -4.34375,0 0,2.59375 4.17188,0 0,0.98437 -4.17188,0 0,3.17188 4.45313,0 0,1 -5.64063,0 0,-8.75 z m 13.00391,2.1875 -2.375,3.1875 2.48438,3.375 -1.26563,0 -1.90625,-2.57813 -1.90625,2.57813 -1.28125,0 2.54688,-3.4375 -2.32813,-3.125 1.26563,0 1.75,2.34375 1.73437,-2.34375 1.28125,0 z m 7.25781,3.01562 0,0.51563 -4.96875,0 q 0.0781,1.125 0.67969,1.70312 0.60156,0.57813 1.66406,0.57813 0.625,0 1.21094,-0.14844 0.58594,-0.14844 1.16406,-0.46094 l 0,1.03125 q -0.59375,0.23438 -1.20312,0.36719 -0.60938,0.13281 -1.23438,0.13281 -1.5625,0 -2.48437,-0.91406 -0.92188,-0.91406 -0.92188,-2.47656 0,-1.60938 0.875,-2.55469 0.875,-0.94531 2.34375,-0.94531 1.32813,0 2.10157,0.85156 0.77343,0.85156 0.77343,2.32031 z m -1.07812,-0.32812 q -0.0156,-0.875 -0.5,-1.40625 -0.48438,-0.53125 -1.28125,-0.53125 -0.90625,0 -1.44531,0.51562 -0.53907,0.51563 -0.61719,1.4375 l 3.84375,-0.0156 z m 7.57031,-2.4375 0,1.01562 q -0.46875,-0.26562 -0.92187,-0.39062 -0.45313,-0.125 -0.92188,-0.125 -1.0625,0 -1.64062,0.66406 -0.57813,0.66406 -0.57813,1.86719 0,1.20312 0.57813,1.86719 0.57812,0.66406 1.64062,0.66406 0.46875,0 0.92188,-0.125 0.45312,-0.125 0.92187,-0.375 l 0,1 q -0.45312,0.20312 -0.9375,0.3125 -0.48437,0.10937 -1.03125,0.10937 -1.48437,0 -2.35937,-0.92968 -0.875,-0.92969 -0.875,-2.52344 0,-1.59375 0.88281,-2.51563 0.88281,-0.92187 2.42969,-0.92187 0.48437,0 0.96093,0.10156 0.47657,0.10156 0.92969,0.30469 z m 1.75391,3.71875 0,-3.96875 1.07812,0 0,3.9375 q 0,0.92187 0.36719,1.39062 0.36719,0.46875 1.08594,0.46875 0.875,0 1.38281,-0.55468 0.50781,-0.55469 0.50781,-1.52344 l 0,-3.71875 1.07813,0 0,6.5625 -1.07813,0 0,-1.01563 q -0.39062,0.60938 -0.90625,0.89844 -0.51562,0.28906 -1.20312,0.28906 -1.14063,0 -1.72657,-0.70312 -0.58593,-0.70313 -0.58593,-2.0625 z m 8.79297,-5.82813 0,1.85938 2.21875,0 0,0.84375 -2.21875,0 0,3.5625 q 0,0.79687 0.21875,1.02344 0.21875,0.22656 0.89062,0.22656 l 1.10938,0 0,0.90625 -1.10938,0 q -1.25,0 -1.72656,-0.46875 -0.47656,-0.46875 -0.47656,-1.6875 l 0,-3.5625 -0.78125,0 0,-0.84375 0.78125,0 0,-1.85938 1.09375,0 z m 9.25195,4.875 0,0.51563 -4.96875,0 q 0.0781,1.125 0.67969,1.70312 0.60156,0.57813 1.66406,0.57813 0.625,0 1.21094,-0.14844 0.58593,-0.14844 1.16406,-0.46094 l 0,1.03125 q -0.59375,0.23438 -1.20313,0.36719 -0.60937,0.13281 -1.23437,0.13281 -1.5625,0 -2.48438,-0.91406 -0.92187,-0.91406 -0.92187,-2.47656 0,-1.60938 0.875,-2.55469 0.875,-0.94531 2.34375,-0.94531 1.32812,0 2.10156,0.85156 0.77344,0.85156 0.77344,2.32031 z m -1.07813,-0.32812 q -0.0156,-0.875 -0.5,-1.40625 -0.48437,-0.53125 -1.28125,-0.53125 -0.90625,0 -1.44531,0.51562 -0.53906,0.51563 -0.61719,1.4375 l 3.84375,-0.0156 z"
         id="path280"
         inkscape:connector-curvature="0" />
    </g>
    <!-- drawing style -->
    <g
       stroke-linejoin="round"
       stroke-linecap="butt"
       stroke-miterlimit="1"
       fill="none"
       stroke-opacity="1"
       stroke="#000000"
       id="g282">
      <path
         d="M 300.5 223.5 L 414.5 223.5"
         id="path284" />
    </g>
    <!-- drawing style -->
    <g
       fill-opacity="1"
       fill-rule="evenodd"
       stroke="none"
       fill="#000000"
       id="g286">
      <path
         d="M 414 223 L 410 219 L 410 227 z"
         id="path288" />
    </g>
    <!-- drawing style -->
    <g
       id="g290"
       transform="translate(-5.6034483,-0.86206897)"
       style="fill:#000000;fill-opacity:1;fill-rule:nonzero;stroke:none">
      <path
         d="m 434.32812,234.89062 q 0.375,0.14063 0.73438,0.5625 0.35937,0.42188 0.73437,1.15625 L 437,239 l -1.28125,0 -1.10938,-2.25 q -0.4375,-0.875 -0.84375,-1.16406 -0.40625,-0.28907 -1.10937,-0.28907 l -1.29688,0 0,3.70313 -1.1875,0 0,-8.75 2.67188,0 q 1.5,0 2.24219,0.625 0.74218,0.625 0.74218,1.89062 0,0.82813 -0.38281,1.375 -0.38281,0.54688 -1.11719,0.75 z m -2.96875,-3.67187 0,3.10937 1.48438,0 q 0.85937,0 1.29687,-0.39843 0.4375,-0.39844 0.4375,-1.16407 0,-0.76562 -0.4375,-1.15625 -0.4375,-0.39062 -1.29687,-0.39062 l -1.48438,0 z m 12.72852,4.23437 0,0.51563 -4.96875,0 q 0.0781,1.125 0.67969,1.70312 0.60156,0.57813 1.66406,0.57813 0.625,0 1.21094,-0.14844 0.58594,-0.14844 1.16406,-0.46094 l 0,1.03125 q -0.59375,0.23438 -1.20312,0.36719 -0.60938,0.13281 -1.23438,0.13281 -1.5625,0 -2.48437,-0.91406 -0.92188,-0.91406 -0.92188,-2.47656 0,-1.60938 0.875,-2.55469 0.875,-0.94531 2.34375,-0.94531 1.32813,0 2.10156,0.85156 0.77344,0.85156 0.77344,2.32031 z m -1.07812,-0.32812 q -0.0156,-0.875 -0.5,-1.40625 -0.48438,-0.53125 -1.28125,-0.53125 -0.90625,0 -1.44532,0.51562 -0.53906,0.51563 -0.61718,1.4375 l 3.84375,-0.0156 z m 3.49218,0.59375 q 0,1.1875 0.48438,1.86719 0.48437,0.67968 1.34375,0.67968 0.85937,0 1.35156,-0.67968 0.49219,-0.67969 0.49219,-1.86719 0,-1.1875 -0.49219,-1.85938 -0.49219,-0.67187 -1.35156,-0.67187 -0.85938,0 -1.34375,0.67187 -0.48438,0.67188 -0.48438,1.85938 z m 3.67188,2.29687 q -0.34375,0.57813 -0.85938,0.86719 -0.51562,0.28906 -1.25,0.28906 -1.1875,0 -1.9375,-0.95312 -0.75,-0.95313 -0.75,-2.5 0,-1.54688 0.75,-2.49219 0.75,-0.94531 1.9375,-0.94531 0.73438,0 1.25,0.28125 0.51563,0.28125 0.85938,0.875 l 0,-1 1.07812,0 0,9.0625 -1.07812,0 0,-3.48438 z m 3.17969,-1.60937 0,-3.96875 1.07812,0 0,3.9375 q 0,0.92187 0.36719,1.39062 0.36719,0.46875 1.08594,0.46875 0.875,0 1.38281,-0.55468 0.50781,-0.55469 0.50781,-1.52344 l 0,-3.71875 1.07813,0 0,6.5625 -1.07813,0 0,-1.01563 q -0.39062,0.60938 -0.90625,0.89844 -0.51562,0.28906 -1.20312,0.28906 -1.14063,0 -1.72657,-0.70312 -0.58593,-0.70313 -0.58593,-2.0625 z m 13.33984,-0.95313 0,0.51563 -4.96875,0 q 0.0781,1.125 0.67969,1.70312 0.60156,0.57813 1.66406,0.57813 0.625,0 1.21094,-0.14844 0.58593,-0.14844 1.16406,-0.46094 l 0,1.03125 q -0.59375,0.23438 -1.20313,0.36719 -0.60937,0.13281 -1.23437,0.13281 -1.5625,0 -2.48438,-0.91406 -0.92187,-0.91406 -0.92187,-2.47656 0,-1.60938 0.875,-2.55469 0.875,-0.94531 2.34375,-0.94531 1.32812,0 2.10156,0.85156 0.77344,0.85156 0.77344,2.32031 z m -1.07813,-0.32812 q -0.0156,-0.875 -0.5,-1.40625 -0.48437,-0.53125 -1.28125,-0.53125 -0.90625,0 -1.44531,0.51562 -0.53906,0.51563 -0.61719,1.4375 l 3.84375,-0.0156 z m 7.02344,-2.5 0,1.03125 q -0.45312,-0.23438 -0.94531,-0.35156 -0.49219,-0.11719 -1.02344,-0.11719 -0.79687,0 -1.20312,0.24219 -0.40625,0.24218 -0.40625,0.74218 0,0.375 0.28906,0.58594 0.28906,0.21094 1.16406,0.39844 l 0.35938,0.0937 q 1.15625,0.23437 1.64062,0.6875 0.48438,0.45312 0.48438,1.25 0,0.92187 -0.72657,1.45312 -0.72656,0.53125 -1.99218,0.53125 -0.53125,0 -1.10157,-0.10156 -0.57031,-0.10156 -1.19531,-0.30469 l 0,-1.125 q 0.59375,0.3125 1.17188,0.46875 0.57812,0.15625 1.15625,0.15625 0.75,0 1.16406,-0.25781 0.41406,-0.25781 0.41406,-0.74219 0,-0.4375 -0.29687,-0.67187 -0.29688,-0.23438 -1.29688,-0.45313 l -0.375,-0.0781 q -1,-0.21875 -1.44531,-0.65625 -0.44531,-0.4375 -0.44531,-1.1875 0,-0.9375 0.65625,-1.4375 0.65625,-0.5 1.85937,-0.5 0.59375,0 1.125,0.0859 0.53125,0.0859 0.96875,0.25781 z m 3.14258,-2.04688 0,1.85938 2.21875,0 0,0.84375 -2.21875,0 0,3.5625 q 0,0.79687 0.21875,1.02344 0.21875,0.22656 0.89062,0.22656 l 1.10938,0 0,0.90625 -1.10938,0 q -1.25,0 -1.72656,-0.46875 -0.47656,-0.46875 -0.47656,-1.6875 l 0,-3.5625 -0.78125,0 0,-0.84375 0.78125,0 0,-1.85938 1.09375,0 z"
         id="path292"
         inkscape:connector-curvature="0" />
    </g>
    <!-- drawing style -->
    <g
       stroke-linejoin="round"
       stroke-linecap="butt"
       stroke-miterlimit="1"
       fill="none"
       stroke-opacity="1"
       stroke="#000000"
       id="g294">
      <path
         d="M 421.5 240.5 L 528.5 240.5"
         id="path296" />
    </g>
    <!-- drawing style -->
    <g
       fill-opacity="1"
       fill-rule="evenodd"
       stroke="none"
       fill="#000000"
       id="g298">
      <path
         d="M 528 240 L 524 236 L 524 244 z"
         id="path300" />
    </g>
    <!-- drawing style -->
    <g
       id="g302"
       transform="translate(-7.3275862,-0.86206897)"
       style="fill:#000000;fill-opacity:1;fill-rule:nonzero;stroke:none">
      <path
         d="m 480.32812,249.89062 q 0.375,0.14063 0.73438,0.5625 0.35937,0.42188 0.73437,1.15625 L 483,254 l -1.28125,0 -1.10938,-2.25 q -0.4375,-0.875 -0.84375,-1.16406 -0.40625,-0.28907 -1.10937,-0.28907 l -1.29688,0 0,3.70313 -1.1875,0 0,-8.75 2.67188,0 q 1.5,0 2.24219,0.625 0.74218,0.625 0.74218,1.89062 0,0.82813 -0.38281,1.375 -0.38281,0.54688 -1.11719,0.75 z m -2.96875,-3.67187 0,3.10937 1.48438,0 q 0.85937,0 1.29687,-0.39843 0.4375,-0.39844 0.4375,-1.16407 0,-0.76562 -0.4375,-1.15625 -0.4375,-0.39062 -1.29687,-0.39062 l -1.48438,0 z m 12.72852,4.23437 0,0.51563 -4.96875,0 q 0.0781,1.125 0.67969,1.70312 0.60156,0.57813 1.66406,0.57813 0.625,0 1.21094,-0.14844 0.58594,-0.14844 1.16406,-0.46094 l 0,1.03125 q -0.59375,0.23438 -1.20312,0.36719 -0.60938,0.13281 -1.23438,0.13281 -1.5625,0 -2.48437,-0.91406 -0.92188,-0.91406 -0.92188,-2.47656 0,-1.60938 0.875,-2.55469 0.875,-0.94531 2.34375,-0.94531 1.32813,0 2.10156,0.85156 0.77344,0.85156 0.77344,2.32031 z m -1.07812,-0.32812 q -0.0156,-0.875 -0.5,-1.40625 -0.48438,-0.53125 -1.28125,-0.53125 -0.90625,0 -1.44532,0.51562 -0.53906,0.51563 -0.61718,1.4375 l 3.84375,-0.0156 z m 7.02343,-2.5 0,1.03125 q -0.45312,-0.23438 -0.94531,-0.35156 -0.49219,-0.11719 -1.02344,-0.11719 -0.79687,0 -1.20312,0.24219 -0.40625,0.24218 -0.40625,0.74218 0,0.375 0.28906,0.58594 0.28906,0.21094 1.16406,0.39844 l 0.35938,0.0937 q 1.15625,0.23437 1.64062,0.6875 0.48438,0.45312 0.48438,1.25 0,0.92187 -0.72656,1.45312 -0.72657,0.53125 -1.99219,0.53125 -0.53125,0 -1.10156,-0.10156 -0.57032,-0.10156 -1.19532,-0.30469 l 0,-1.125 q 0.59375,0.3125 1.17188,0.46875 0.57812,0.15625 1.15625,0.15625 0.75,0 1.16406,-0.25781 0.41406,-0.25781 0.41406,-0.74219 0,-0.4375 -0.29687,-0.67187 -0.29688,-0.23438 -1.29688,-0.45313 l -0.375,-0.0781 q -1,-0.21875 -1.44531,-0.65625 -0.44531,-0.4375 -0.44531,-1.1875 0,-0.9375 0.65625,-1.4375 0.65625,-0.5 1.85937,-0.5 0.59375,0 1.125,0.0859 0.53125,0.0859 0.96875,0.25781 z m 3.11133,5.39062 0,3.48438 -1.07812,0 0,-9.0625 1.07812,0 0,1 q 0.34375,-0.59375 0.85938,-0.875 0.51562,-0.28125 1.23437,-0.28125 1.20313,0 1.95313,0.94531 0.75,0.94531 0.75,2.49219 0,1.54687 -0.75,2.5 -0.75,0.95312 -1.95313,0.95312 -0.71875,0 -1.23437,-0.28906 -0.51563,-0.28906 -0.85938,-0.86719 z m 3.67188,-2.29687 q 0,-1.1875 -0.49219,-1.85938 -0.49219,-0.67187 -1.33594,-0.67187 -0.85937,0 -1.35156,0.67187 -0.49219,0.67188 -0.49219,1.85938 0,1.1875 0.49219,1.86719 0.49219,0.67968 1.35156,0.67968 0.84375,0 1.33594,-0.67968 0.49219,-0.67969 0.49219,-1.86719 z m 5.44531,-2.53125 q -0.85938,0 -1.36719,0.67969 -0.50781,0.67968 -0.50781,1.85156 0,1.1875 0.5,1.85937 0.5,0.67188 1.375,0.67188 0.85937,0 1.36719,-0.67969 0.50781,-0.67969 0.50781,-1.85156 0,-1.15625 -0.50781,-1.84375 -0.50782,-0.6875 -1.36719,-0.6875 z m 0,-0.90625 q 1.40625,0 2.21094,0.91406 0.80468,0.91406 0.80468,2.52344 0,1.60937 -0.80468,2.53125 -0.80469,0.92187 -2.21094,0.92187 -1.40625,0 -2.21094,-0.92187 -0.80469,-0.92188 -0.80469,-2.53125 0,-1.60938 0.80469,-2.52344 0.80469,-0.91406 2.21094,-0.91406 z m 10.26367,2.75 0,3.96875 -1.07812,0 0,-3.92188 q 0,-0.9375 -0.36719,-1.39843 -0.36719,-0.46094 -1.08594,-0.46094 -0.875,0 -1.38281,0.55469 -0.50781,0.55468 -0.50781,1.52343 l 0,3.70313 -1.07813,0 0,-6.5625 1.07813,0 0,1.01562 q 0.39062,-0.59375 0.91406,-0.88281 0.52344,-0.28906 1.21094,-0.28906 1.125,0 1.71093,0.69531 0.58594,0.69531 0.58594,2.05469 z m 6.32422,-2.40625 0,1.03125 q -0.45313,-0.23438 -0.94531,-0.35156 -0.49219,-0.11719 -1.02344,-0.11719 -0.79688,0 -1.20313,0.24219 -0.40625,0.24218 -0.40625,0.74218 0,0.375 0.28907,0.58594 0.28906,0.21094 1.16406,0.39844 l 0.35937,0.0937 q 1.15625,0.23437 1.64063,0.6875 0.48437,0.45312 0.48437,1.25 0,0.92187 -0.72656,1.45312 -0.72656,0.53125 -1.99219,0.53125 -0.53125,0 -1.10156,-0.10156 -0.57031,-0.10156 -1.19531,-0.30469 l 0,-1.125 q 0.59375,0.3125 1.17187,0.46875 0.57813,0.15625 1.15625,0.15625 0.75,0 1.16407,-0.25781 0.41406,-0.25781 0.41406,-0.74219 0,-0.4375 -0.29688,-0.67187 -0.29687,-0.23438 -1.29687,-0.45313 l -0.375,-0.0781 q -1,-0.21875 -1.44531,-0.65625 -0.44532,-0.4375 -0.44532,-1.1875 0,-0.9375 0.65625,-1.4375 0.65625,-0.5 1.85938,-0.5 0.59375,0 1.125,0.0859 0.53125,0.0859 0.96875,0.25781 z m 7.68945,2.82812 0,0.51563 -4.96875,0 q 0.0781,1.125 0.67969,1.70312 0.60156,0.57813 1.66406,0.57813 0.625,0 1.21094,-0.14844 0.58594,-0.14844 1.16406,-0.46094 l 0,1.03125 q -0.59375,0.23438 -1.20312,0.36719 -0.60938,0.13281 -1.23438,0.13281 -1.5625,0 -2.48437,-0.91406 -0.92188,-0.91406 -0.92188,-2.47656 0,-1.60938 0.875,-2.55469 0.875,-0.94531 2.34375,-0.94531 1.32813,0 2.10156,0.85156 0.77344,0.85156 0.77344,2.32031 z m -1.07812,-0.32812 q -0.0156,-0.875 -0.5,-1.40625 -0.48438,-0.53125 -1.28125,-0.53125 -0.90625,0 -1.44532,0.51562 -0.53906,0.51563 -0.61718,1.4375 l 3.84375,-0.0156 z"
         id="path304"
         inkscape:connector-curvature="0" />
    </g>
    <!-- drawing style -->
    <g
       stroke-linejoin="round"
       stroke-dasharray="5,5"
       stroke-linecap="butt"
       stroke-miterlimit="1"
       fill="none"
       stroke-opacity="1"
       stroke="#000000"
       id="g306">
      <path
         d="M 528.5 255.5 L 421.5 255.5"
         id="path308" />
    </g>
    <!-- drawing style -->
    <g
       fill-opacity="1"
       fill-rule="evenodd"
       stroke="none"
       fill="#000000"
       id="g310">
      <path
         d="M 421 255 L 425 251 L 425 259 z"
         id="path312" />
    </g>
    <!-- drawing style -->
    <g
       id="g314"
       transform="translate(-11.637931,-2.5862069)"
       style="fill:#000000;fill-opacity:1;fill-rule:nonzero;stroke:none">
      <path
         d="m 566.32812,136.89062 q 0.375,0.14063 0.73438,0.5625 0.35937,0.42188 0.73437,1.15625 L 569,141 l -1.28125,0 -1.10938,-2.25 q -0.4375,-0.875 -0.84375,-1.16406 -0.40625,-0.28907 -1.10937,-0.28907 l -1.29688,0 0,3.70313 -1.1875,0 0,-8.75 2.67188,0 q 1.5,0 2.24219,0.625 0.74218,0.625 0.74218,1.89062 0,0.82813 -0.38281,1.375 -0.38281,0.54688 -1.11719,0.75 z m -2.96875,-3.67187 0,3.10937 1.48438,0 q 0.85937,0 1.29687,-0.39843 0.4375,-0.39844 0.4375,-1.16407 0,-0.76562 -0.4375,-1.15625 -0.4375,-0.39062 -1.29687,-0.39062 l -1.48438,0 z m 12.72852,4.23437 0,0.51563 -4.96875,0 q 0.0781,1.125 0.67969,1.70312 0.60156,0.57813 1.66406,0.57813 0.625,0 1.21094,-0.14844 0.58594,-0.14844 1.16406,-0.46094 l 0,1.03125 q -0.59375,0.23438 -1.20312,0.36719 -0.60938,0.13281 -1.23438,0.13281 -1.5625,0 -2.48437,-0.91406 -0.92188,-0.91406 -0.92188,-2.47656 0,-1.60938 0.875,-2.55469 0.875,-0.94531 2.34375,-0.94531 1.32813,0 2.10156,0.85156 0.77344,0.85156 0.77344,2.32031 z m -1.07812,-0.32812 q -0.0156,-0.875 -0.5,-1.40625 -0.48438,-0.53125 -1.28125,-0.53125 -0.90625,0 -1.44532,0.51562 -0.53906,0.51563 -0.61718,1.4375 l 3.84375,-0.0156 z m 3.49218,0.59375 q 0,1.1875 0.48438,1.86719 0.48437,0.67968 1.34375,0.67968 0.85937,0 1.35156,-0.67968 0.49219,-0.67969 0.49219,-1.86719 0,-1.1875 -0.49219,-1.85938 -0.49219,-0.67187 -1.35156,-0.67187 -0.85938,0 -1.34375,0.67187 -0.48438,0.67188 -0.48438,1.85938 z m 3.67188,2.29687 q -0.34375,0.57813 -0.85938,0.86719 -0.51562,0.28906 -1.25,0.28906 -1.1875,0 -1.9375,-0.95312 -0.75,-0.95313 -0.75,-2.5 0,-1.54688 0.75,-2.49219 0.75,-0.94531 1.9375,-0.94531 0.73438,0 1.25,0.28125 0.51563,0.28125 0.85938,0.875 l 0,-1 1.07812,0 0,9.0625 -1.07812,0 0,-3.48438 z m 3.17969,-1.60937 0,-3.96875 1.07812,0 0,3.9375 q 0,0.92187 0.36719,1.39062 0.36719,0.46875 1.08594,0.46875 0.875,0 1.38281,-0.55468 0.50781,-0.55469 0.50781,-1.52344 l 0,-3.71875 1.07813,0 0,6.5625 -1.07813,0 0,-1.01563 q -0.39062,0.60938 -0.90625,0.89844 -0.51562,0.28906 -1.20312,0.28906 -1.14063,0 -1.72657,-0.70312 -0.58593,-0.70313 -0.58593,-2.0625 z m 13.33984,-0.95313 0,0.51563 -4.96875,0 q 0.0781,1.125 0.67969,1.70312 0.60156,0.57813 1.66406,0.57813 0.625,0 1.21094,-0.14844 0.58593,-0.14844 1.16406,-0.46094 l 0,1.03125 q -0.59375,0.23438 -1.20313,0.36719 -0.60937,0.13281 -1.23437,0.13281 -1.5625,0 -2.48438,-0.91406 -0.92187,-0.91406 -0.92187,-2.47656 0,-1.60938 0.875,-2.55469 0.875,-0.94531 2.34375,-0.94531 1.32812,0 2.10156,0.85156 0.77344,0.85156 0.77344,2.32031 z m -1.07813,-0.32812 q -0.0156,-0.875 -0.5,-1.40625 -0.48437,-0.53125 -1.28125,-0.53125 -0.90625,0 -1.44531,0.51562 -0.53906,0.51563 -0.61719,1.4375 l 3.84375,-0.0156 z m 7.02344,-2.5 0,1.03125 q -0.45312,-0.23438 -0.94531,-0.35156 -0.49219,-0.11719 -1.02344,-0.11719 -0.79687,0 -1.20312,0.24219 -0.40625,0.24218 -0.40625,0.74218 0,0.375 0.28906,0.58594 0.28906,0.21094 1.16406,0.39844 l 0.35938,0.0937 q 1.15625,0.23437 1.64062,0.6875 0.48438,0.45312 0.48438,1.25 0,0.92187 -0.72657,1.45312 -0.72656,0.53125 -1.99218,0.53125 -0.53125,0 -1.10157,-0.10156 -0.57031,-0.10156 -1.19531,-0.30469 l 0,-1.125 q 0.59375,0.3125 1.17188,0.46875 0.57812,0.15625 1.15625,0.15625 0.75,0 1.16406,-0.25781 0.41406,-0.25781 0.41406,-0.74219 0,-0.4375 -0.29687,-0.67187 -0.29688,-0.23438 -1.29688,-0.45313 l -0.375,-0.0781 q -1,-0.21875 -1.44531,-0.65625 -0.44531,-0.4375 -0.44531,-1.1875 0,-0.9375 0.65625,-1.4375 0.65625,-0.5 1.85937,-0.5 0.59375,0 1.125,0.0859 0.53125,0.0859 0.96875,0.25781 z m 3.14258,-2.04688 0,1.85938 2.21875,0 0,0.84375 -2.21875,0 0,3.5625 q 0,0.79687 0.21875,1.02344 0.21875,0.22656 0.89062,0.22656 l 1.10938,0 0,0.90625 -1.10938,0 q -1.25,0 -1.72656,-0.46875 -0.47656,-0.46875 -0.47656,-1.6875 l 0,-3.5625 -0.78125,0 0,-0.84375 0.78125,0 0,-1.85938 1.09375,0 z m 7.23633,0.46875 q -1.29688,0 -2.05469,0.96094 -0.75781,0.96094 -0.75781,2.63281 0,1.64063 0.75781,2.60157 0.75781,0.96093 2.05469,0.96093 1.28125,0 2.03906,-0.96093 0.75781,-0.96094 0.75781,-2.60157 0,-1.67187 -0.75781,-2.63281 -0.75781,-0.96094 -2.03906,-0.96094 z m 0,-0.95312 q 1.82812,0 2.92969,1.23437 1.10156,1.23438 1.10156,3.3125 0,2.0625 -1.10156,3.29688 -1.10157,1.23437 -2.92969,1.23437 -1.84375,0 -2.95313,-1.23437 -1.10937,-1.23438 -1.10937,-3.29688 0,-2.07812 1.10937,-3.3125 1.10938,-1.23437 2.95313,-1.23437 z m 5.72656,6.3125 0,-3.96875 1.07813,0 0,3.9375 q 0,0.92187 0.36718,1.39062 0.36719,0.46875 1.08594,0.46875 0.875,0 1.38281,-0.55468 0.50782,-0.55469 0.50782,-1.52344 l 0,-3.71875 1.07812,0 0,6.5625 -1.07812,0 0,-1.01563 q -0.39063,0.60938 -0.90625,0.89844 -0.51563,0.28906 -1.20313,0.28906 -1.14062,0 -1.72656,-0.70312 -0.58594,-0.70313 -0.58594,-2.0625 z m 8.79297,-5.82813 0,1.85938 2.21875,0 0,0.84375 -2.21875,0 0,3.5625 q 0,0.79687 0.21875,1.02344 0.21875,0.22656 0.89062,0.22656 l 1.10938,0 0,0.90625 -1.10938,0 q -1.25,0 -1.72656,-0.46875 -0.47656,-0.46875 -0.47656,-1.6875 l 0,-3.5625 -0.78125,0 0,-0.84375 0.78125,0 0,-1.85938 1.09375,0 z m 4.67383,7.4375 0,3.48438 -1.07813,0 0,-9.0625 1.07813,0 0,1 q 0.34375,-0.59375 0.85937,-0.875 0.51563,-0.28125 1.23438,-0.28125 1.20312,0 1.95312,0.94531 0.75,0.94531 0.75,2.49219 0,1.54687 -0.75,2.5 -0.75,0.95312 -1.95312,0.95312 -0.71875,0 -1.23438,-0.28906 -0.51562,-0.28906 -0.85937,-0.86719 z m 3.67187,-2.29687 q 0,-1.1875 -0.49219,-1.85938 -0.49218,-0.67187 -1.33593,-0.67187 -0.85938,0 -1.35157,0.67187 -0.49218,0.67188 -0.49218,1.85938 0,1.1875 0.49218,1.86719 0.49219,0.67968 1.35157,0.67968 0.84375,0 1.33593,-0.67968 0.49219,-0.67969 0.49219,-1.86719 z m 2.78906,0.6875 0,-3.96875 1.07813,0 0,3.9375 q 0,0.92187 0.36719,1.39062 0.36718,0.46875 1.08593,0.46875 0.875,0 1.38282,-0.55468 0.50781,-0.55469 0.50781,-1.52344 l 0,-3.71875 1.07812,0 0,6.5625 -1.07812,0 0,-1.01563 q -0.39063,0.60938 -0.90625,0.89844 -0.51563,0.28906 -1.20313,0.28906 -1.14062,0 -1.72656,-0.70312 -0.58594,-0.70313 -0.58594,-2.0625 z m 8.79297,-5.82813 0,1.85938 2.21875,0 0,0.84375 -2.21875,0 0,3.5625 q 0,0.79687 0.21875,1.02344 0.21875,0.22656 0.89063,0.22656 l 1.10937,0 0,0.90625 -1.10937,0 q -1.25,0 -1.72656,-0.46875 -0.47657,-0.46875 -0.47657,-1.6875 l 0,-3.5625 -0.78125,0 0,-0.84375 0.78125,0 0,-1.85938 1.09375,0 z"
         id="path316"
         inkscape:connector-curvature="0" />
    </g>
    <!-- drawing style -->
    <g
       stroke-linejoin="round"
       stroke-linecap="butt"
       stroke-miterlimit="1"
       fill="none"
       stroke-opacity="1"
       stroke="#000000"
       id="g318">
      <path
         d="M 642.5 142.5 L 300.5 142.5"
         id="path320" />
    </g>
    <!-- drawing style -->
    <g
       stroke-linejoin="round"
       stroke-linecap="butt"
       stroke-miterlimit="1"
       fill="none"
       stroke-opacity="1"
       stroke="#000000"
       id="g322">
      <path
         d="M 300.5 142.5 L 304.5 138.5"
         id="path324" />
    </g>
    <!-- drawing style -->
    <g
       stroke-linejoin="round"
       stroke-linecap="butt"
       stroke-miterlimit="1"
       fill="none"
       stroke-opacity="1"
       stroke="#000000"
       id="g326">
      <path
         d="M 300.5 142.5 L 304.5 146.5"
         id="path328" />
    </g>
    <!-- drawing style -->
    <g
       id="g330"
       transform="translate(-11.637931,-1.7241379)"
       style="fill:#000000;fill-opacity:1;fill-rule:nonzero;stroke:none">
      <path
         d="m 680.32812,153.89062 q 0.375,0.14063 0.73438,0.5625 0.35937,0.42188 0.73437,1.15625 L 683,158 l -1.28125,0 -1.10938,-2.25 q -0.4375,-0.875 -0.84375,-1.16406 -0.40625,-0.28907 -1.10937,-0.28907 l -1.29688,0 0,3.70313 -1.1875,0 0,-8.75 2.67188,0 q 1.5,0 2.24219,0.625 0.74218,0.625 0.74218,1.89062 0,0.82813 -0.38281,1.375 -0.38281,0.54688 -1.11719,0.75 z m -2.96875,-3.67187 0,3.10937 1.48438,0 q 0.85937,0 1.29687,-0.39843 0.4375,-0.39844 0.4375,-1.16407 0,-0.76562 -0.4375,-1.15625 -0.4375,-0.39062 -1.29687,-0.39062 l -1.48438,0 z m 12.72852,4.23437 0,0.51563 -4.96875,0 q 0.0781,1.125 0.67969,1.70312 0.60156,0.57813 1.66406,0.57813 0.625,0 1.21094,-0.14844 0.58594,-0.14844 1.16406,-0.46094 l 0,1.03125 q -0.59375,0.23438 -1.20312,0.36719 -0.60938,0.13281 -1.23438,0.13281 -1.5625,0 -2.48437,-0.91406 -0.92188,-0.91406 -0.92188,-2.47656 0,-1.60938 0.875,-2.55469 0.875,-0.94531 2.34375,-0.94531 1.32813,0 2.10156,0.85156 0.77344,0.85156 0.77344,2.32031 z m -1.07812,-0.32812 q -0.0156,-0.875 -0.5,-1.40625 -0.48438,-0.53125 -1.28125,-0.53125 -0.90625,0 -1.44532,0.51562 -0.53906,0.51563 -0.61718,1.4375 l 3.84375,-0.0156 z m 3.49218,0.59375 q 0,1.1875 0.48438,1.86719 0.48437,0.67968 1.34375,0.67968 0.85937,0 1.35156,-0.67968 0.49219,-0.67969 0.49219,-1.86719 0,-1.1875 -0.49219,-1.85938 -0.49219,-0.67187 -1.35156,-0.67187 -0.85938,0 -1.34375,0.67187 -0.48438,0.67188 -0.48438,1.85938 z m 3.67188,2.29687 q -0.34375,0.57813 -0.85938,0.86719 -0.51562,0.28906 -1.25,0.28906 -1.1875,0 -1.9375,-0.95312 -0.75,-0.95313 -0.75,-2.5 0,-1.54688 0.75,-2.49219 0.75,-0.94531 1.9375,-0.94531 0.73438,0 1.25,0.28125 0.51563,0.28125 0.85938,0.875 l 0,-1 1.07812,0 0,9.0625 -1.07812,0 0,-3.48438 z m 3.17969,-1.60937 0,-3.96875 1.07812,0 0,3.9375 q 0,0.92187 0.36719,1.39062 0.36719,0.46875 1.08594,0.46875 0.875,0 1.38281,-0.55468 0.50781,-0.55469 0.50781,-1.52344 l 0,-3.71875 1.07813,0 0,6.5625 -1.07813,0 0,-1.01563 q -0.39062,0.60938 -0.90625,0.89844 -0.51562,0.28906 -1.20312,0.28906 -1.14063,0 -1.72657,-0.70312 -0.58593,-0.70313 -0.58593,-2.0625 z m 13.33984,-0.95313 0,0.51563 -4.96875,0 q 0.0781,1.125 0.67969,1.70312 0.60156,0.57813 1.66406,0.57813 0.625,0 1.21094,-0.14844 0.58593,-0.14844 1.16406,-0.46094 l 0,1.03125 q -0.59375,0.23438 -1.20313,0.36719 -0.60937,0.13281 -1.23437,0.13281 -1.5625,0 -2.48438,-0.91406 -0.92187,-0.91406 -0.92187,-2.47656 0,-1.60938 0.875,-2.55469 0.875,-0.94531 2.34375,-0.94531 1.32812,0 2.10156,0.85156 0.77344,0.85156 0.77344,2.32031 z m -1.07813,-0.32812 q -0.0156,-0.875 -0.5,-1.40625 -0.48437,-0.53125 -1.28125,-0.53125 -0.90625,0 -1.44531,0.51562 -0.53906,0.51563 -0.61719,1.4375 l 3.84375,-0.0156 z m 7.02344,-2.5 0,1.03125 q -0.45312,-0.23438 -0.94531,-0.35156 -0.49219,-0.11719 -1.02344,-0.11719 -0.79687,0 -1.20312,0.24219 -0.40625,0.24218 -0.40625,0.74218 0,0.375 0.28906,0.58594 0.28906,0.21094 1.16406,0.39844 l 0.35938,0.0937 q 1.15625,0.23437 1.64062,0.6875 0.48438,0.45312 0.48438,1.25 0,0.92187 -0.72657,1.45312 -0.72656,0.53125 -1.99218,0.53125 -0.53125,0 -1.10157,-0.10156 -0.57031,-0.10156 -1.19531,-0.30469 l 0,-1.125 q 0.59375,0.3125 1.17188,0.46875 0.57812,0.15625 1.15625,0.15625 0.75,0 1.16406,-0.25781 0.41406,-0.25781 0.41406,-0.74219 0,-0.4375 -0.29687,-0.67187 -0.29688,-0.23438 -1.29688,-0.45313 l -0.375,-0.0781 q -1,-0.21875 -1.44531,-0.65625 -0.44531,-0.4375 -0.44531,-1.1875 0,-0.9375 0.65625,-1.4375 0.65625,-0.5 1.85937,-0.5 0.59375,0 1.125,0.0859 0.53125,0.0859 0.96875,0.25781 z m 3.14258,-2.04688 0,1.85938 2.21875,0 0,0.84375 -2.21875,0 0,3.5625 q 0,0.79687 0.21875,1.02344 0.21875,0.22656 0.89062,0.22656 l 1.10938,0 0,0.90625 -1.10938,0 q -1.25,0 -1.72656,-0.46875 -0.47656,-0.46875 -0.47656,-1.6875 l 0,-3.5625 -0.78125,0 0,-0.84375 0.78125,0 0,-1.85938 1.09375,0 z m 7.23633,0.46875 q -1.29688,0 -2.05469,0.96094 -0.75781,0.96094 -0.75781,2.63281 0,1.64063 0.75781,2.60157 0.75781,0.96093 2.05469,0.96093 1.28125,0 2.03906,-0.96093 0.75781,-0.96094 0.75781,-2.60157 0,-1.67187 -0.75781,-2.63281 -0.75781,-0.96094 -2.03906,-0.96094 z m 0,-0.95312 q 1.82812,0 2.92969,1.23437 1.10156,1.23438 1.10156,3.3125 0,2.0625 -1.10156,3.29688 -1.10157,1.23437 -2.92969,1.23437 -1.84375,0 -2.95313,-1.23437 -1.10937,-1.23438 -1.10937,-3.29688 0,-2.07812 1.10937,-3.3125 1.10938,-1.23437 2.95313,-1.23437 z m 5.72656,6.3125 0,-3.96875 1.07813,0 0,3.9375 q 0,0.92187 0.36718,1.39062 0.36719,0.46875 1.08594,0.46875 0.875,0 1.38281,-0.55468 0.50782,-0.55469 0.50782,-1.52344 l 0,-3.71875 1.07812,0 0,6.5625 -1.07812,0 0,-1.01563 q -0.39063,0.60938 -0.90625,0.89844 -0.51563,0.28906 -1.20313,0.28906 -1.14062,0 -1.72656,-0.70312 -0.58594,-0.70313 -0.58594,-2.0625 z m 8.79297,-5.82813 0,1.85938 2.21875,0 0,0.84375 -2.21875,0 0,3.5625 q 0,0.79687 0.21875,1.02344 0.21875,0.22656 0.89062,0.22656 l 1.10938,0 0,0.90625 -1.10938,0 q -1.25,0 -1.72656,-0.46875 -0.47656,-0.46875 -0.47656,-1.6875 l 0,-3.5625 -0.78125,0 0,-0.84375 0.78125,0 0,-1.85938 1.09375,0 z m 4.67383,7.4375 0,3.48438 -1.07813,0 0,-9.0625 1.07813,0 0,1 q 0.34375,-0.59375 0.85937,-0.875 0.51563,-0.28125 1.23438,-0.28125 1.20312,0 1.95312,0.94531 0.75,0.94531 0.75,2.49219 0,1.54687 -0.75,2.5 -0.75,0.95312 -1.95312,0.95312 -0.71875,0 -1.23438,-0.28906 -0.51562,-0.28906 -0.85937,-0.86719 z m 3.67187,-2.29687 q 0,-1.1875 -0.49219,-1.85938 -0.49218,-0.67187 -1.33593,-0.67187 -0.85938,0 -1.35157,0.67187 -0.49218,0.67188 -0.49218,1.85938 0,1.1875 0.49218,1.86719 0.49219,0.67968 1.35157,0.67968 0.84375,0 1.33593,-0.67968 0.49219,-0.67969 0.49219,-1.86719 z m 2.78906,0.6875 0,-3.96875 1.07813,0 0,3.9375 q 0,0.92187 0.36719,1.39062 0.36718,0.46875 1.08593,0.46875 0.875,0 1.38282,-0.55468 0.50781,-0.55469 0.50781,-1.52344 l 0,-3.71875 1.07812,0 0,6.5625 -1.07812,0 0,-1.01563 q -0.39063,0.60938 -0.90625,0.89844 -0.51563,0.28906 -1.20313,0.28906 -1.14062,0 -1.72656,-0.70312 -0.58594,-0.70313 -0.58594,-2.0625 z m 8.79297,-5.82813 0,1.85938 2.21875,0 0,0.84375 -2.21875,0 0,3.5625 q 0,0.79687 0.21875,1.02344 0.21875,0.22656 0.89063,0.22656 l 1.10937,0 0,0.90625 -1.10937,0 q -1.25,0 -1.72656,-0.46875 -0.47657,-0.46875 -0.47657,-1.6875 l 0,-3.5625 -0.78125,0 0,-0.84375 0.78125,0 0,-1.85938 1.09375,0 z"
         id="path332"
         inkscape:connector-curvature="0" />
    </g>
    <!-- drawing style -->
    <g
       stroke-linejoin="round"
       stroke-linecap="butt"
       stroke-miterlimit="1"
       fill="none"
       stroke-opacity="1"
       stroke="#000000"
       id="g334">
      <path
         d="M 756.5 159.5 L 300.5 159.5"
         id="path336" />
    </g>
    <!-- drawing style -->
    <g
       stroke-linejoin="round"
       stroke-linecap="butt"
       stroke-miterlimit="1"
       fill="none"
       stroke-opacity="1"
       stroke="#000000"
       id="g338">
      <path
         d="M 300.5 159.5 L 304.5 155.5"
         id="path340" />
    </g>
    <!-- drawing style -->
    <g
       stroke-linejoin="round"
       stroke-linecap="butt"
       stroke-miterlimit="1"
       fill="none"
       stroke-opacity="1"
       stroke="#000000"
       id="g342">
      <path
         d="M 300.5 159.5 L 304.5 163.5"
         id="path344" />
    </g>
    <!-- drawing style -->
    <g
       fill-opacity="1"
       fill-rule="nonzero"
       stroke="none"
       fill="#ffffff"
       id="g346">
      <path
         d="M 14 5 L 109 5 L 109 32 L 14 32 L 14 5 z"
         id="path348" />
    </g>
    <!-- drawing style -->
    <g
       stroke-linejoin="round"
       stroke-width="2"
       stroke-linecap="butt"
       stroke-miterlimit="1"
       fill="none"
       stroke-opacity="1"
       stroke="#000000"
       id="g350"
       style="stroke-width:1;stroke-miterlimit:1;stroke-dasharray:none">
      <path
         d="M 14.5 5.5 L 109.5 5.5 L 109.5 32.5 L 14.5 32.5 L 14.5 5.5 z"
         id="path352"
         style="stroke-width:1;stroke-miterlimit:1;stroke-dasharray:none" />
    </g>
    <!-- drawing style -->
    <!-- drawing style -->
    <g
       id="g358"
       transform="translate(-5.9736868,3.9824579)"
       style="fill:#000000;fill-opacity:1;fill-rule:nonzero;stroke:none">
      <path
         d="m 47.421875,9.53125 0,1.15625 Q 46.75,10.375 46.148437,10.210938 45.546875,10.046875 45,10.046875 q -0.96875,0 -1.492188,0.375 -0.523437,0.375 -0.523437,1.078125 0,0.578125 0.34375,0.875 0.34375,0.296875 1.328125,0.46875 L 45.359375,13 q 1.328125,0.25 1.960937,0.882813 0.632813,0.632812 0.632813,1.695312 0,1.28125 -0.851563,1.9375 -0.851562,0.65625 -2.507812,0.65625 -0.609375,0 -1.3125,-0.140625 -0.703125,-0.140625 -1.453125,-0.421875 l 0,-1.21875 q 0.71875,0.40625 1.414062,0.609375 0.695313,0.203125 1.351563,0.203125 1.015625,0 1.570312,-0.398438 0.554688,-0.398437 0.554688,-1.132812 0,-0.640625 -0.398438,-1.007812 Q 45.921875,14.296875 45.015625,14.125 l -0.71875,-0.140625 Q 42.96875,13.71875 42.382812,13.15625 q -0.585937,-0.5625 -0.585937,-1.5625 0,-1.171875 0.8125,-1.8359375 0.8125,-0.6640625 2.25,-0.6640625 0.625,0 1.257812,0.109375 Q 46.75,9.3125 47.421875,9.53125 z m 7.945312,4.921875 0,0.515625 -4.96875,0 q 0.07813,1.125 0.679688,1.703125 0.601562,0.578125 1.664062,0.578125 0.625,0 1.210938,-0.148438 0.585937,-0.148437 1.164062,-0.460937 l 0,1.03125 q -0.59375,0.234375 -1.203125,0.367187 -0.609375,0.132813 -1.234375,0.132813 -1.5625,0 -2.484375,-0.914063 -0.921875,-0.914062 -0.921875,-2.476562 0,-1.609375 0.875,-2.554687 0.875,-0.945313 2.34375,-0.945313 1.328125,0 2.101563,0.851563 0.773437,0.851562 0.773437,2.320312 z M 54.289062,14.125 q -0.01563,-0.875 -0.5,-1.40625 -0.484375,-0.53125 -1.28125,-0.53125 -0.90625,0 -1.445312,0.515625 -0.539063,0.515625 -0.617188,1.4375 l 3.84375,-0.01563 z m 8.304688,-0.09375 0,3.96875 -1.078125,0 0,-3.921875 q 0,-0.9375 -0.367188,-1.398437 Q 60.78125,12.21875 60.0625,12.21875 q -0.875,0 -1.382813,0.554688 -0.507812,0.554687 -0.507812,1.523437 l 0,3.703125 -1.078125,0 0,-6.5625 1.078125,0 0,1.015625 q 0.390625,-0.59375 0.914062,-0.882812 0.523438,-0.289063 1.210938,-0.289063 1.125,0 1.710937,0.695313 0.585938,0.695312 0.585938,2.054687 z m 6.464844,-1.59375 0,-3.5625 1.078125,0 0,9.125 -1.078125,0 0,-0.984375 q -0.34375,0.578125 -0.859375,0.867187 -0.515625,0.289063 -1.25,0.289063 -1.1875,0 -1.9375,-0.953125 -0.75,-0.953125 -0.75,-2.5 0,-1.546875 0.75,-2.492187 0.75,-0.945313 1.9375,-0.945313 0.734375,0 1.25,0.28125 0.515625,0.28125 0.859375,0.875 z m -3.671875,2.28125 q 0,1.1875 0.484375,1.867187 0.484375,0.679688 1.34375,0.679688 0.859375,0 1.351562,-0.679688 0.492188,-0.679687 0.492188,-1.867187 0,-1.1875 -0.492188,-1.859375 -0.492187,-0.671875 -1.351562,-0.671875 -0.859375,0 -1.34375,0.671875 -0.484375,0.671875 -0.484375,1.859375 z m 12.585937,-0.265625 0,0.515625 -4.96875,0 q 0.07813,1.125 0.679688,1.703125 0.601562,0.578125 1.664062,0.578125 0.625,0 1.210938,-0.148438 0.585937,-0.148437 1.164062,-0.460937 l 0,1.03125 q -0.59375,0.234375 -1.203125,0.367187 -0.609375,0.132813 -1.234375,0.132813 -1.5625,0 -2.484375,-0.914063 -0.921875,-0.914062 -0.921875,-2.476562 0,-1.609375 0.875,-2.554687 0.875,-0.945313 2.34375,-0.945313 1.328125,0 2.101563,0.851563 0.773437,0.851562 0.773437,2.320312 z M 76.894531,14.125 q -0.01563,-0.875 -0.5,-1.40625 -0.484375,-0.53125 -1.28125,-0.53125 -0.90625,0 -1.445312,0.515625 -0.539063,0.515625 -0.617188,1.4375 l 3.84375,-0.01563 z m 6.648438,-1.6875 q -0.1875,-0.09375 -0.398438,-0.148437 -0.210937,-0.05469 -0.476562,-0.05469 -0.90625,0 -1.398438,0.59375 -0.492187,0.59375 -0.492187,1.71875 l 0,3.453125 -1.078125,0 0,-6.5625 1.078125,0 0,1.015625 q 0.34375,-0.59375 0.890625,-0.882812 0.546875,-0.289063 1.328125,-0.289063 0.109375,0 0.242187,0.01563 0.132813,0.01563 0.289063,0.04687 l 0.01563,1.09375 z M 88.837891,17 l 1.9375,0 0,-6.671875 -2.109375,0.421875 0,-1.078125 2.09375,-0.421875 1.1875,0 0,7.75 1.9375,0 0,1 -5.046875,0 0,-1 z"
         id="path360"
         inkscape:connector-curvature="0" />
    </g>
    <!-- drawing style -->
    <g
       fill-opacity="1"
       fill-rule="nonzero"
       stroke="none"
       fill="#ffffff"
       id="g362">
      <path
         d="M 128 5 L 223 5 L 223 32 L 128 32 L 128 5 z"
         id="path364" />
    </g>
    <!-- drawing style -->
    <g
       stroke-miterlimit="1"
       id="g366"
       transform="matrix(1.102808,0,0,0.99817816,-13.186235,0.03461492)"
       style="fill:none;stroke:#000000;stroke-linecap:butt;stroke-linejoin:round;stroke-miterlimit:1;stroke-opacity:1">
      <path
         d="m 128.5,5.5 95,0 0,27 -95,0 0,-27 z"
         id="path368"
         inkscape:connector-curvature="0" />
    </g>
    <!-- drawing style -->
    <!-- drawing style -->
    <!-- drawing style -->
    <g
       fill-opacity="1"
       fill-rule="nonzero"
       stroke="none"
       fill="#ffffff"
       id="g378">
      <path
         d="M 242 69 L 350 69 L 350 96 L 242 96 L 242 69 z"
         id="path380" />
    </g>
    <text
       xml:space="preserve"
       style="font-size:14px;font-style:normal;font-variant:normal;font-weight:normal;font-stretch:normal;text-align:start;line-height:125%;letter-spacing:0px;word-spacing:0px;writing-mode:lr-tb;text-anchor:start;fill:#000000;fill-opacity:1;stroke:none;font-family:Linux Biolinum;-inkscape-font-specification:Linux Biolinum"
       x="253.03029"
       y="86.36364"
       id="text3257"
       sodipodi:linespacing="125%"><tspan
         sodipodi:role="line"
         x="253.03029"
         y="86.36364"
         id="tspan3261">Streaming Process</tspan></text>
    <!-- drawing style -->
    <g
       stroke-miterlimit="1"
       id="g382"
       transform="matrix(1.1629219,0,0,0.9971536,-39.470125,0.23625088)"
       style="fill:none;stroke:#000000;stroke-linecap:butt;stroke-linejoin:round;stroke-miterlimit:1;stroke-opacity:1">
      <path
         d="m 242.5,69.5 108,0 0,27 -108,0 0,-27 z"
         id="path384"
         inkscape:connector-curvature="0" />
    </g>
    <!-- drawing style -->
    <!-- drawing style -->
    <!-- drawing style -->
    <g
       fill-opacity="1"
       fill-rule="nonzero"
       stroke="none"
       fill="#ffffff"
       id="g394">
      <path
         d="M 370 5 L 465 5 L 465 32 L 370 32 L 370 5 z"
         id="path396" />
    </g>
    <!-- drawing style -->
    <g
       stroke-linejoin="round"
       stroke-linecap="butt"
       stroke-miterlimit="1"
       fill="none"
       stroke-opacity="1"
       stroke="#000000"
       id="g398">
      <path
         d="M 370.5 5.5 L 465.5 5.5 L 465.5 32.5 L 370.5 32.5 L 370.5 5.5 z"
         id="path400" />
    </g>
    <text
       xml:space="preserve"
       style="font-size:14px;font-style:normal;font-variant:normal;font-weight:normal;font-stretch:normal;text-align:start;line-height:125%;letter-spacing:0px;word-spacing:0px;writing-mode:lr-tb;text-anchor:start;fill:#000000;fill-opacity:1;stroke:none;font-family:Linux Biolinum;-inkscape-font-specification:Linux Biolinum"
       x="381.06061"
       y="23.484848"
       id="text3273"
       sodipodi:linespacing="125%"><tspan
         sodipodi:role="line"
         x="381.06061"
         y="23.484848"
         id="tspan3277">Matlab WPS</tspan></text>
    <!-- drawing style -->
    <!-- drawing style -->
    <!-- drawing style -->
    <g
       fill-opacity="1"
       fill-rule="nonzero"
       stroke="none"
       fill="#ffffff"
       id="g410">
      <path
         d="M 484 5 L 579 5 L 579 32 L 484 32 L 484 5 z"
         id="path412" />
    </g>
    <!-- drawing style -->
    <g
       stroke-linejoin="round"
       stroke-linecap="butt"
       stroke-miterlimit="1"
       fill="none"
       stroke-opacity="1"
       stroke="#000000"
       id="g414">
      <path
         d="M 484.5 5.5 L 579.5 5.5 L 579.5 32.5 L 484.5 32.5 L 484.5 5.5 z"
         id="path416" />
    </g>
    <text
       xml:space="preserve"
       style="font-size:14px;font-style:normal;font-variant:normal;font-weight:normal;font-stretch:normal;text-align:start;line-height:125%;letter-spacing:0px;word-spacing:0px;writing-mode:lr-tb;text-anchor:start;fill:#000000;fill-opacity:1;stroke:none;font-family:Linux Biolinum;-inkscape-font-specification:Linux Biolinum"
       x="510.60605"
       y="23.48484"
       id="text3281"
       sodipodi:linespacing="125%"><tspan
         sodipodi:role="line"
         id="tspan3283"
         x="510.60605"
         y="23.48484">Matlab</tspan></text>
    <!-- drawing style -->
    <!-- drawing style -->
    <!-- drawing style -->
    <g
       fill-opacity="1"
       fill-rule="nonzero"
       stroke="none"
       fill="#ffffff"
       id="g426">
      <path
         d="M 598 5 L 693 5 L 693 32 L 598 32 L 598 5 z"
         id="path428" />
    </g>
    <!-- drawing style -->
    <g
       stroke-linejoin="round"
       stroke-width="2"
       stroke-linecap="butt"
       stroke-miterlimit="1"
       fill="none"
       stroke-opacity="1"
       stroke="#000000"
       id="g430"
       style="stroke-width:1;stroke-miterlimit:1;stroke-dasharray:none">
      <path
         d="M 598.5 5.5 L 693.5 5.5 L 693.5 32.5 L 598.5 32.5 L 598.5 5.5 z"
         id="path432"
         style="stroke-width:1;stroke-miterlimit:1;stroke-dasharray:none" />
    </g>
    <text
       xml:space="preserve"
       style="font-size:14px;font-style:normal;font-variant:normal;font-weight:normal;font-stretch:normal;text-align:start;line-height:125%;letter-spacing:0px;word-spacing:0px;writing-mode:lr-tb;text-anchor:start;fill:#000000;fill-opacity:1;stroke:none;font-family:Linux Biolinum;-inkscape-font-specification:Linux Biolinum"
       x="617.42426"
       y="23.48485"
       id="text3285"
       sodipodi:linespacing="125%"><tspan
         sodipodi:role="line"
         id="tspan3287"
         x="617.42426"
         y="23.48485">Receiver 1</tspan></text>
    <!-- drawing style -->
    <!-- drawing style -->
    <!-- drawing style -->
    <g
       id="g442"
       stroke="none"
       fill-rule="nonzero"
       fill-opacity="1"
       fill="#ffffff">
      <path
         d="M 712 5 L 807 5 L 807 32 L 712 32 L 712 5 z"
         id="path444" />
    </g>
    <!-- drawing style -->
    <g
       stroke-linejoin="round"
       stroke-width="2"
       stroke-linecap="butt"
       stroke-miterlimit="1"
       fill="none"
       stroke-opacity="1"
       stroke="#000000"
       id="g446"
       style="stroke-width:1;stroke-miterlimit:1;stroke-dasharray:none">
      <path
         d="M 712.5 5.5 L 807.5 5.5 L 807.5 32.5 L 712.5 32.5 L 712.5 5.5 z"
         id="path448"
         style="stroke-width:1;stroke-miterlimit:1;stroke-dasharray:none" />
    </g>
    <text
       xml:space="preserve"
       style="font-size:14px;font-style:normal;font-variant:normal;font-weight:normal;font-stretch:normal;text-align:start;line-height:125%;letter-spacing:0px;word-spacing:0px;writing-mode:lr-tb;text-anchor:start;fill:#000000;fill-opacity:1;stroke:none;font-family:Linux Biolinum;-inkscape-font-specification:Linux Biolinum"
       x="728.7879"
       y="23.484846"
       id="text3289"
       sodipodi:linespacing="125%"><tspan
         sodipodi:role="line"
         x="728.7879"
         y="23.484846"
         id="tspan3293">Receiver 2</tspan></text>
    <!-- drawing style -->
    <!-- drawing style -->
    <!-- drawing style -->
    <g
       fill-opacity="1"
       fill-rule="nonzero"
       stroke="none"
       fill="#ffffff"
       id="g458">
      <path
         d="M 50 170 L 86 170 L 86 188 L 50 188 L 50 170 z"
         id="path460" />
    </g>
    <!-- drawing style -->
    <g
       stroke-linejoin="round"
       stroke-width="2"
       stroke-linecap="butt"
       stroke-miterlimit="1"
       fill="none"
       stroke-opacity="1"
       stroke="#000000"
       id="g462">
      <path
         d="M 50.5 170.5 L 789.5 170.5 L 789.5 305.5 L 50.5 305.5 L 50.5 170.5 z"
         id="path464" />
    </g>
    <!-- drawing style -->
    <g
       stroke-linejoin="round"
       stroke-width="2"
       stroke-linecap="butt"
       stroke-miterlimit="1"
       fill="none"
       stroke-opacity="1"
       stroke="#000000"
       id="g466">
      <path
         d="M 50.5 188.5 L 87.5 188.5"
         id="path468" />
    </g>
    <!-- drawing style -->
    <g
       stroke-linejoin="round"
       stroke-width="2"
       stroke-linecap="butt"
       stroke-miterlimit="1"
       fill="none"
       stroke-opacity="1"
       stroke="#000000"
       id="g470">
      <path
         d="M 87.5 188.5 L 89.5 184.5"
         id="path472" />
    </g>
    <!-- drawing style -->
    <g
       stroke-linejoin="round"
       stroke-width="2"
       stroke-linecap="butt"
       stroke-miterlimit="1"
       fill="none"
       stroke-opacity="1"
       stroke="#000000"
       id="g474">
      <path
         d="M 89.5 184.5 L 89.5 170.5"
         id="path476" />
    </g>
    <!-- drawing style -->
    <text
       xml:space="preserve"
       style="font-size:14px;font-style:normal;font-variant:normal;font-weight:normal;font-stretch:normal;text-align:start;line-height:125%;letter-spacing:0px;word-spacing:0px;writing-mode:lr;text-anchor:start;fill:#000000;fill-opacity:1;stroke:none;font-family:Linux Biolinum;-inkscape-font-specification:Linux Biolinum"
       x="39.393936"
       y="24.242426"
       id="text3245"
       sodipodi:linespacing="125%"><tspan
         sodipodi:role="line"
         x="39.393936"
         y="24.242426"
         id="tspan3249">Sender</tspan></text>
    <text
       xml:space="preserve"
       style="font-size:14px;font-style:normal;font-variant:normal;font-weight:normal;font-stretch:normal;text-align:start;line-height:125%;letter-spacing:0px;word-spacing:0px;writing-mode:lr-tb;text-anchor:start;fill:#000000;fill-opacity:1;stroke:none;font-family:Linux Biolinum;-inkscape-font-specification:Linux Biolinum"
       x="134.8485"
       y="21.969698"
       id="text3253"
       sodipodi:linespacing="125%"><tspan
         sodipodi:role="line"
         id="tspan3255"
         x="134.8485"
         y="21.969698">Streaming WPS</tspan></text>
    <!-- drawing style -->
    <g
       stroke-linejoin="round"
       stroke-width="2"
       stroke-linecap="butt"
       stroke-miterlimit="1"
       fill="none"
       stroke-opacity="1"
       stroke="#000000"
       id="g482">
      <path
         d="M 291.5 357.5 L 302.5 367.5"
         id="path484" />
    </g>
    <!-- drawing style -->
    <g
       stroke-linejoin="round"
       stroke-width="2"
       stroke-linecap="butt"
       stroke-miterlimit="1"
       fill="none"
       stroke-opacity="1"
       stroke="#000000"
       id="g486">
      <path
         d="M 291.5 367.5 L 302.5 357.5"
         id="path488" />
    </g>
    <!-- drawing style -->
    <flowRoot
       xml:space="preserve"
       id="flowRoot3265"
       style="fill:black;stroke:none;stroke-opacity:1;stroke-width:1px;stroke-linejoin:miter;stroke-linecap:butt;fill-opacity:1;font-family:Linux Biolinum;font-style:normal;font-weight:normal;font-size:13px;line-height:125%;letter-spacing:0px;word-spacing:0px;-inkscape-font-specification:Linux Biolinum;font-stretch:normal;font-variant:normal;text-anchor:start;text-align:start;writing-mode:lr"><flowRegion
         id="flowRegion3267"><rect
           id="rect3269"
           width="76.515152"
           height="83.333336"
           x="-197.72728"
           y="-34.848484" /></flowRegion><flowPara
         id="flowPara3271"></flowPara></flowRoot>    <text
       xml:space="preserve"
       style="font-size:13px;font-style:normal;font-variant:normal;font-weight:normal;font-stretch:normal;text-align:start;line-height:125%;letter-spacing:0px;word-spacing:0px;writing-mode:lr-tb;text-anchor:start;fill:#000000;fill-opacity:1;stroke:none;font-family:Linux Biolinum;-inkscape-font-specification:Linux Biolinum"
       x="118.18182"
       y="400.75757"
       id="text3297"
       sodipodi:linespacing="125%"><tspan
         sodipodi:role="line"
         x="118.18182"
         y="400.75757"
         id="tspan3301">loop</tspan></text>
    <text
       xml:space="preserve"
       style="font-size:13px;font-style:normal;font-variant:normal;font-weight:normal;font-stretch:normal;text-align:start;line-height:125%;letter-spacing:0px;word-spacing:0px;writing-mode:lr-tb;text-anchor:start;fill:#000000;fill-opacity:1;stroke:none;font-family:Linux Biolinum;-inkscape-font-specification:Linux Biolinum"
       x="192.42424"
       y="453.0303"
       id="text3305"
       sodipodi:linespacing="125%"><tspan
         sodipodi:role="line"
         id="tspan3307"
         x="192.42424"
         y="453.0303">Stop</tspan></text>
    <text
       xml:space="preserve"
       style="font-size:13px;font-style:normal;font-variant:normal;font-weight:normal;font-stretch:normal;text-align:start;line-height:125%;letter-spacing:0px;word-spacing:0px;writing-mode:lr-tb;text-anchor:start;fill:#000000;fill-opacity:1;stroke:none;font-family:Linux Biolinum;-inkscape-font-specification:Linux Biolinum"
       x="359.84848"
       y="442.42422"
       id="text3309"
       sodipodi:linespacing="125%"><tspan
         sodipodi:role="line"
         id="tspan3311"
         x="359.84848"
         y="442.42422">End</tspan></text>
    <text
       xml:space="preserve"
       style="font-size:13px;font-style:normal;font-variant:normal;font-weight:normal;font-stretch:normal;text-align:start;line-height:125%;letter-spacing:0px;word-spacing:0px;writing-mode:lr-tb;text-anchor:start;fill:#000000;fill-opacity:1;stroke:none;font-family:Linux Biolinum;-inkscape-font-specification:Linux Biolinum"
       x="298.48486"
       y="403.78787"
       id="text3313"
       sodipodi:linespacing="125%"><tspan
         sodipodi:role="line"
         id="tspan3315"
         x="298.48486"
         y="403.78787">Output</tspan></text>
    <text
       xml:space="preserve"
       style="font-size:13px;font-style:normal;font-variant:normal;font-weight:normal;font-stretch:normal;text-align:start;line-height:125%;letter-spacing:0px;word-spacing:0px;writing-mode:lr-tb;text-anchor:start;fill:#000000;fill-opacity:1;stroke:none;font-family:Linux Biolinum;-inkscape-font-specification:Linux Biolinum"
       x="521.2121"
       y="440.90909"
       id="text3317"
       sodipodi:linespacing="125%"><tspan
         sodipodi:role="line"
         id="tspan3319"
         x="521.2121"
         y="440.90909">Execute</tspan></text>
    <text
       xml:space="preserve"
       style="font-size:13px;font-style:normal;font-variant:normal;font-weight:normal;font-stretch:normal;text-align:start;line-height:125%;letter-spacing:0px;word-spacing:0px;writing-mode:lr-tb;text-anchor:start;fill:#000000;fill-opacity:1;stroke:none;font-family:Linux Biolinum;-inkscape-font-specification:Linux Biolinum"
       x="571.2121"
       y="462.12122"
       id="text3321"
       sodipodi:linespacing="125%"><tspan
         sodipodi:role="line"
         id="tspan3323"
         x="571.2121"
         y="462.12122">Execute</tspan></text>
    <text
       xml:space="preserve"
       style="font-size:13px;font-style:normal;font-variant:normal;font-weight:normal;font-stretch:normal;text-align:start;line-height:125%;letter-spacing:0px;word-spacing:0px;writing-mode:lr-tb;text-anchor:start;fill:#000000;fill-opacity:1;stroke:none;font-family:Linux Biolinum;-inkscape-font-specification:Linux Biolinum"
       x="541.66669"
       y="532.57574"
       id="text3325"
       sodipodi:linespacing="125%"><tspan
         sodipodi:role="line"
         id="tspan3327"
         x="541.66669"
         y="532.57574">Request</tspan></text>
    <text
       xml:space="preserve"
       style="font-size:13px;font-style:normal;font-variant:normal;font-weight:normal;font-stretch:normal;text-align:start;line-height:125%;letter-spacing:0px;word-spacing:0px;writing-mode:lr-tb;text-anchor:start;fill:#000000;fill-opacity:1;stroke:none;font-family:Linux Biolinum;-inkscape-font-specification:Linux Biolinum"
       x="729.54547"
       y="470.45456"
       id="text3329"
       sodipodi:linespacing="125%"><tspan
         sodipodi:role="line"
         id="tspan3331"
         x="729.54547"
         y="470.45456">RequestOutput</tspan></text>
    <text
       xml:space="preserve"
       style="font-size:13px;font-style:normal;font-variant:normal;font-weight:normal;font-stretch:normal;text-align:start;line-height:125%;letter-spacing:0px;word-spacing:0px;writing-mode:lr-tb;text-anchor:start;fill:#000000;fill-opacity:1;stroke:none;font-family:Linux Biolinum;-inkscape-font-specification:Linux Biolinum"
       x="747.72729"
       y="516.66669"
       id="text3333"
       sodipodi:linespacing="125%"><tspan
         sodipodi:role="line"
         id="tspan3335"
         x="747.72729"
         y="516.66669">RequestOutput</tspan></text>
    <text
       xml:space="preserve"
       style="font-size:13px;font-style:normal;font-variant:normal;font-weight:normal;font-stretch:normal;text-align:start;line-height:125%;letter-spacing:0px;word-spacing:0px;writing-mode:lr-tb;text-anchor:start;fill:#000000;fill-opacity:1;stroke:none;font-family:Linux Biolinum;-inkscape-font-specification:Linux Biolinum"
       x="382.57578"
       y="509.84848"
       id="text3337"
       sodipodi:linespacing="125%"><tspan
         sodipodi:role="line"
         id="tspan3339"
         x="382.57578"
         y="509.84848">ExecuteResponse</tspan></text>
    <text
       xml:space="preserve"
       style="font-size:13px;font-style:normal;font-variant:normal;font-weight:normal;font-stretch:normal;text-align:start;line-height:125%;letter-spacing:0px;word-spacing:0px;writing-mode:lr-tb;text-anchor:start;fill:#000000;fill-opacity:1;stroke:none;font-family:Linux Biolinum;-inkscape-font-specification:Linux Biolinum"
       x="410.60605"
       y="546.96973"
       id="text3341"
       sodipodi:linespacing="125%"><tspan
         sodipodi:role="line"
         id="tspan3343"
         x="410.60605"
         y="546.96973">ProcessID</tspan></text>
    <text
       xml:space="preserve"
       style="font-size:13px;font-style:normal;font-variant:normal;font-weight:normal;font-stretch:normal;text-align:start;line-height:125%;letter-spacing:0px;word-spacing:0px;writing-mode:lr-tb;text-anchor:start;fill:#000000;fill-opacity:1;stroke:none;font-family:Linux Biolinum;-inkscape-font-specification:Linux Biolinum"
       x="269.69696"
       y="548.48486"
       id="text3345"
       sodipodi:linespacing="125%"><tspan
         sodipodi:role="line"
         id="tspan3347"
         x="269.69696"
         y="548.48486">Input</tspan></text>
  </g>
</svg>
